<?xml version="1.0" standalone="no"?>
<!DOCTYPE svg PUBLIC "-//W3C//DTD SVG 1.1//EN" "http://www.w3.org/Graphics/SVG/1.1/DTD/svg11.dtd">
<svg xmlns="http://www.w3.org/2000/svg" version="1.1" viewBox="0 0 1920 420" width="1920" height="420">
<g stroke-width="2.00" fill="none" stroke-linecap="butt">
<path stroke="#317246" vector-effect="non-scaling-stroke" d="   M 214.51 297.27   Q 210.91 300.68 206.66 297.32"/>
<path stroke="#ababab" vector-effect="non-scaling-stroke" d="   M 278.56 386.69   Q 273.87 380.69 271.62 371.24   A 0.85 0.81 88.5 0 0 271.01 370.63   Q 269.02 370.20 267.04 370.68   A 0.67 0.63 83.3 0 0 266.56 371.32   L 266.50 403.14   A 0.66 0.66 6.7 0 0 267.01 403.78   Q 270.78 404.63 272.42 402.70   Q 275.33 399.29 278.86 396.55   A 0.70 0.67 43.2 0 1 279.67 396.54   Q 294.69 406.78 313.00 404.02   Q 323.50 402.45 330.78 395.35   Q 333.69 392.50 335.50 389.08   Q 337.52 385.26 338.00 381.50   Q 339.53 369.48 331.76 362.48   Q 327.69 358.81 318.31 355.66   Q 310.49 353.03 303.50 352.00   Q 291.97 350.30 284.56 346.94   Q 278.67 344.27 277.36 338.34   Q 276.35 333.79 278.29 329.33   Q 280.32 324.67 284.81 322.31   Q 295.66 316.63 308.01 321.58   Q 319.46 326.18 324.67 337.39   Q 326.59 341.54 327.80 345.88   A 1.26 1.02 81.1 0 0 328.83 346.81   L 332.21 346.85   A 0.65 0.47 89.4 0 0 332.68 346.19   L 332.31 316.55   A 0.69 0.67 -83.3 0 0 331.81 315.90   Q 329.65 315.32 327.92 315.59   A 1.42 1.16 -70.2 0 0 327.12 316.07   L 321.63 322.57   A 0.55 0.52 37.5 0 1 320.91 322.65   Q 308.22 313.42 293.73 315.07   Q 282.55 316.34 275.63 322.53   Q 267.43 329.86 268.00 342.50   Q 268.35 350.18 273.51 355.23   Q 276.85 358.50 284.38 361.29   Q 290.85 363.68 296.50 364.75   Q 307.23 366.78 315.56 369.36   Q 321.46 371.19 323.89 373.14   Q 327.90 376.37 328.49 381.69   Q 328.92 385.53 327.26 389.10   Q 325.58 392.73 322.44 395.19   Q 319.15 397.76 315.03 399.06   Q 311.50 400.18 306.86 400.21   Q 289.25 400.35 278.56 386.69"/>
<path stroke="#ababab" vector-effect="non-scaling-stroke" d="   M 62.82 360.55   Q 69.71 360.39 71.75 360.50   Q 80.66 360.96 84.19 368.31   Q 86.04 372.18 86.41 378.06   A 0.82 0.76 -81.7 0 0 86.89 378.76   Q 88.75 379.47 90.61 378.76   A 0.79 0.70 81.3 0 0 91.06 378.06   L 91.18 339.56   A 0.68 0.64 -82.8 0 0 90.71 338.91   Q 88.79 338.36 86.91 339.00   A 0.81 0.77 82.8 0 0 86.40 339.69   Q 86.03 343.80 85.25 346.00   Q 81.85 355.62 71.49 356.07   Q 67.25 356.25 62.92 356.25   A 0.67 0.67 89.6 0 1 62.25 355.58   Q 62.25 340.50 62.27 326.00   Q 62.27 321.00 67.75 321.00   Q 77.00 321.00 86.25 320.99   Q 101.03 320.98 106.62 334.34   Q 108.78 339.51 109.90 345.01   A 0.80 0.75 89.0 0 0 110.49 345.62   Q 112.25 346.01 114.01 345.62   A 0.60 0.60 -7.9 0 0 114.48 345.00   L 112.69 317.01   A 0.55 0.54 -1.7 0 0 112.14 316.50   L 34.31 316.56   A 0.52 0.50 -0.0 0 0 33.79 317.06   L 33.74 320.14   A 0.88 0.85 0.3 0 0 34.62 321.00   Q 39.38 321.00 43.50 321.14   Q 47.44 321.27 47.75 324.50   Q 48.31 330.32 48.06 339.35   Q 47.79 349.19 47.83 354.17   Q 48.00 374.08 47.64 394.00   Q 47.58 397.28 44.75 398.00   Q 41.85 398.74 37.40 398.57   Q 34.79 398.47 34.62 398.56   Q 33.39 399.15 34.09 402.25   A 0.96 0.95 83.5 0 0 35.02 403.00   L 115.18 402.94   A 0.55 0.53 1.7 0 0 115.73 402.44   L 117.42 371.31   A 0.49 0.48 -88.3 0 0 116.94 370.79   L 113.22 370.76   A 0.61 0.59 -84.4 0 0 112.62 371.27   Q 111.60 377.36 109.46 382.34   Q 102.70 398.07 85.25 398.36   Q 77.71 398.49 70.17 398.50   Q 70.08 398.50 68.34 398.57   Q 65.62 398.69 63.80 397.47   Q 62.25 396.44 62.25 394.59   L 62.31 361.06   A 0.52 0.51 -0.6 0 1 62.82 360.55"/>
<path stroke="#ababab" vector-effect="non-scaling-stroke" d="   M 190.98 383.98   L 161.94 317.57   A 1.68 1.66 78.1 0 0 160.41 316.56   Q 146.17 316.46 131.19 316.50   Q 131.07 316.50 129.83 316.39   Q 127.67 316.21 128.25 318.75   A 2.61 1.05 78.2 0 0 129.75 321.00   Q 135.55 320.33 141.22 321.63   Q 143.90 322.24 144.00 325.75   Q 144.28 335.25 144.19 344.75   Q 144.00 365.88 144.00 387.00   Q 144.00 390.75 141.97 393.56   Q 140.25 395.95 136.61 397.14   Q 132.96 398.33 129.06 398.54   A 0.69 0.46 -3.1 0 0 128.40 399.03   L 128.48 402.30   A 0.84 0.72 -0.7 0 0 129.32 403.00   L 164.88 403.00   A 0.78 0.76 0.4 0 0 165.66 402.25   L 165.72 399.07   A 0.56 0.52 2.2 0 0 165.19 398.54   Q 161.79 398.35 158.50 397.49   Q 152.98 396.04 150.90 391.56   Q 149.77 389.15 149.67 382.76   Q 149.22 353.25 149.69 323.33   Q 149.73 321.30 150.53 323.16   L 184.87 402.49   A 0.83 0.64 74.3 0 0 185.55 403.00   L 189.21 402.80   A 0.92 0.67 -77.0 0 0 189.88 402.22   L 221.89 322.39   Q 222.25 321.51 222.25 322.46   Q 222.45 356.49 222.50 390.73   Q 222.50 390.81 222.60 392.76   Q 222.88 397.81 217.56 398.26   Q 213.04 398.64 207.88 398.48   A 0.87 0.76 1.8 0 0 206.98 399.22   L 206.89 402.46   A 0.67 0.47 0.4 0 0 207.56 402.94   L 251.82 403.00   A 0.62 0.57 0.0 0 0 252.44 402.43   L 252.40 399.18   A 0.64 0.53 2.9 0 0 251.81 398.64   Q 247.52 398.25 245.50 398.50   Q 241.34 399.02 238.16 397.14   A 2.86 2.85 15.3 0 1 236.75 394.68   Q 236.75 360.74 236.75 327.47   Q 236.75 327.33 236.68 326.04   Q 236.54 323.27 238.44 322.03   Q 239.59 321.29 242.72 321.13   Q 247.25 320.91 251.98 320.80   A 0.53 0.52 -0.6 0 0 252.50 320.28   L 252.50 317.06   A 0.56 0.56 0.0 0 0 251.94 316.50   L 219.07 316.50   A 0.77 0.76 10.7 0 0 218.36 316.98   L 191.37 383.98   Q 191.19 384.44 190.98 383.98"/>
<path stroke="#ababab" vector-effect="non-scaling-stroke" d="   M 361.94 321.12   Q 367.25 321.24 367.25 326.50   Q 367.25 358.38 367.22 390.25   Q 367.21 393.39 366.51 396.15   Q 365.99 398.21 364.02 398.25   L 352.71 398.47   A 1.17 0.95 0.9 0 0 351.58 399.36   L 351.38 402.47   A 0.67 0.44 1.1 0 0 352.06 402.94   L 396.37 403.00   A 0.60 0.59 0.0 0 0 396.97 402.41   L 396.97 399.07   A 0.54 0.52 0.6 0 0 396.44 398.55   Q 392.47 398.47 388.51 398.73   Q 384.93 398.96 383.01 397.60   Q 381.25 396.37 381.25 394.22   L 381.25 325.26   Q 381.25 322.61 383.69 321.59   Q 385.65 320.78 389.00 320.95   Q 392.35 321.12 396.45 320.74   A 0.58 0.57 -2.8 0 0 396.98 320.17   L 396.97 317.06   A 0.53 0.50 -0.0 0 0 396.44 316.56   L 352.08 316.50   A 0.63 0.55 0.5 0 0 351.45 317.04   L 351.40 320.46   A 0.67 0.48 0.0 0 0 352.07 320.94   Q 357.00 321.01 361.94 321.12"/>
</g>
<path fill="#0b8e36" d="   M 268.56 0.00   L 273.06 0.00   Q 280.07 1.00 285.05 5.63   Q 286.89 7.35 287.07 9.61   Q 287.33 13.11 285.81 17.06   Q 283.99 21.80 282.76 24.77   Q 280.44 30.32 280.10 32.59   Q 279.38 37.29 280.56 42.07   A 0.93 0.89 2.8 0 0 281.17 42.71   L 305.63 50.72   A 1.36 1.27 -82.0 0 1 306.52 51.98   L 306.55 59.69   A 1.37 1.19 26.7 0 0 306.91 60.56   Q 316.53 70.88 322.44 80.81   Q 337.20 105.63 342.81 134.30   A 0.60 0.60 -3.7 0 1 342.18 135.01   Q 334.31 134.54 328.22 139.01   A 0.72 0.71 -26.4 0 0 327.95 139.79   L 331.05 150.46   A 0.62 0.61 68.5 0 1 330.74 151.18   L 316.11 158.92   A 0.98 0.96 61.1 0 1 314.83 158.54   Q 312.29 154.20 308.85 149.91   Q 306.19 146.61 303.82 150.07   Q 301.00 154.17 299.46 158.80   Q 298.25 162.44 298.26 168.35   Q 298.28 181.31 298.26 194.26   Q 298.25 205.39 297.58 214.22   Q 296.42 229.30 294.43 244.29   Q 294.05 247.21 292.62 251.36   Q 289.29 261.06 290.19 271.48   Q 290.36 273.51 292.06 276.19   Q 294.73 280.39 297.47 284.62   Q 298.05 285.50 297.02 285.48   L 282.57 285.22   A 0.92 0.90 -14.7 0 1 281.78 284.77   L 276.01 274.71   A 3.10 2.05 -67.8 0 1 275.69 273.11   Q 278.15 229.12 275.28 186.26   A 0.98 0.85 -79.6 0 0 274.82 185.48   Q 273.89 184.99 272.99 185.29   Q 272.19 185.56 271.58 186.75   Q 267.11 195.56 262.63 205.10   A 4.28 4.28 52.2 0 0 262.30 207.75   Q 265.60 224.78 268.25 242.14   Q 268.46 243.54 269.75 247.81   Q 271.48 253.50 269.30 259.40   Q 268.07 262.70 268.00 264.25   Q 267.69 270.74 265.40 276.77   Q 264.86 278.19 264.00 278.77   Q 262.80 279.57 261.41 279.31   Q 259.86 279.01 258.93 277.21   Q 257.83 275.09 257.25 272.25   Q 255.87 265.53 255.74 259.65   Q 255.67 256.49 254.84 254.00   Q 248.98 236.40 246.81 231.19   Q 242.56 220.94 242.00 207.75   Q 241.56 197.50 242.18 189.08   Q 242.32 187.18 244.44 174.01   Q 245.93 164.79 246.03 155.42   Q 246.13 146.98 246.03 146.09   Q 245.52 141.14 242.56 137.19   Q 237.70 130.69 229.66 133.28   A 0.78 0.77 84.8 0 0 229.13 133.93   Q 228.35 140.75 229.29 147.49   Q 229.34 147.84 230.74 152.87   Q 231.57 155.85 231.50 159.75   Q 231.35 168.06 230.59 172.07   Q 228.12 184.98 223.75 197.37   Q 221.69 203.19 220.24 209.20   Q 218.67 215.73 220.07 222.29   Q 225.10 245.82 216.20 267.87   Q 216.16 267.95 214.49 271.40   Q 212.74 275.00 212.88 278.93   Q 212.92 279.90 214.40 285.30   Q 216.01 291.13 214.51 297.27   Q 210.91 300.68 206.66 297.32   Q 204.16 290.55 199.20 284.15   A 2.22 2.18 27.0 0 1 198.74 282.78   Q 198.86 269.54 197.79 257.21   Q 197.30 251.56 195.55 246.52   Q 193.80 241.46 191.67 236.53   Q 190.71 234.31 190.65 231.87   Q 190.02 204.75 177.81 179.44   Q 174.96 173.53 171.77 169.70   A 1.27 0.76 60.3 0 0 170.94 169.23   L 166.18 169.33   A 0.74 0.57 -83.9 0 0 165.60 169.93   Q 163.27 182.36 156.34 192.89   A 1.63 1.51 -31.5 0 0 156.08 193.81   Q 157.22 221.89 149.06 248.77   Q 145.55 260.34 143.23 272.21   Q 142.79 274.50 143.23 277.28   Q 143.98 281.97 143.70 286.75   Q 143.56 289.22 142.28 291.13   Q 141.02 293.02 138.69 293.52   Q 135.61 294.18 133.60 292.30   Q 131.88 290.69 130.95 286.63   Q 130.15 283.13 130.24 279.71   A 0.66 0.66 82.6 0 0 129.40 279.06   Q 124.32 280.49 122.31 276.19   Q 120.79 272.92 121.14 266.24   Q 121.82 253.12 122.48 240.00   A 1.41 1.37 28.4 0 0 122.20 239.11   Q 118.43 234.01 118.65 227.50   Q 119.03 216.37 118.81 205.25   Q 118.75 202.28 118.05 199.42   Q 117.49 197.15 115.75 195.90   Q 114.00 194.64 111.60 193.62   A 2.33 2.33 -56.9 0 0 108.97 194.18   Q 106.98 196.34 107.95 199.76   Q 108.98 203.43 108.77 207.24   Q 108.09 219.24 104.98 230.86   Q 101.12 245.28 95.56 261.81   Q 94.46 265.09 93.25 267.25   Q 92.23 269.06 92.70 271.82   Q 92.87 272.85 94.15 276.06   Q 96.64 282.37 96.50 289.27   A 3.00 2.97 -15.5 0 1 95.08 291.75   Q 92.46 293.38 89.26 293.83   Q 83.64 294.62 81.46 289.51   Q 80.61 287.50 80.35 285.37   Q 80.20 284.06 80.56 281.15   Q 80.92 278.25 80.75 276.25   Q 80.39 272.11 77.67 270.21   A 1.73 1.73 -55.5 0 0 75.26 270.66   Q 71.93 275.54 66.97 275.79   Q 64.98 275.90 63.71 275.03   Q 62.08 273.91 62.00 271.75   Q 61.88 268.46 62.76 264.82   Q 63.91 260.08 63.96 258.04   Q 64.18 249.30 61.25 240.00   Q 57.48 228.03 55.49 211.75   Q 51.92 182.61 52.25 153.29   A 3.64 3.62 -60.4 0 0 51.73 151.38   Q 48.90 146.70 45.11 143.55   Q 44.15 142.75 44.03 144.00   Q 42.95 154.69 41.74 165.16   Q 41.73 165.28 41.56 169.35   Q 41.43 172.72 39.81 176.56   Q 39.07 178.33 39.16 181.10   Q 39.25 183.83 39.25 183.91   Q 39.18 202.92 38.94 221.93   A 0.51 0.50 -89.4 0 1 38.43 222.44   L 28.41 222.25   A 0.67 0.67 0.4 0 1 27.76 221.59   L 27.07 173.31   A 1.37 0.79 77.1 0 1 27.35 172.41   L 30.66 169.10   A 1.44 0.76 -32.4 0 0 31.11 168.31   Q 31.32 166.23 31.28 164.14   Q 31.25 162.18 30.23 160.21   Q 27.99 155.88 25.72 151.56   Q 24.42 149.09 24.35 146.63   Q 24.26 142.94 24.79 139.26   Q 28.05 116.92 34.25 95.22   Q 34.71 93.62 34.99 91.74   Q 35.25 89.97 35.59 88.22   Q 39.14 70.30 53.88 61.40   Q 55.84 60.22 64.06 56.94   Q 69.89 54.61 75.55 51.27   A 1.71 1.64 -11.0 0 0 76.37 50.11   L 77.62 42.56   A 1.34 1.18 35.3 0 0 77.40 41.64   Q 71.23 32.56 74.95 22.95   Q 76.46 19.05 79.28 16.97   Q 82.38 14.68 86.50 14.24   Q 91.48 13.70 96.27 15.18   Q 102.60 17.14 103.00 24.50   Q 103.32 30.34 101.68 34.12   Q 99.63 38.84 97.18 43.37   Q 95.99 45.57 95.80 47.94   Q 95.60 50.38 95.42 52.82   Q 95.20 55.88 96.28 57.46   Q 98.40 60.56 103.25 60.00   Q 109.78 59.25 113.26 54.80   Q 117.94 48.82 123.43 41.34   A 2.26 2.24 49.3 0 0 123.60 38.96   Q 119.78 31.77 120.25 23.25   Q 120.52 18.39 124.56 15.06   Q 129.11 11.31 137.00 11.75   Q 142.41 12.05 144.98 16.26   Q 146.70 19.07 147.59 24.31   Q 148.80 31.34 145.94 37.44   Q 144.69 40.10 145.18 42.27   Q 145.61 44.19 145.62 44.28   Q 146.22 49.37 146.48 54.49   A 1.50 1.29 -70.2 0 0 146.82 55.38   Q 150.04 59.02 157.32 60.15   A 1.40 1.40 -80.7 0 1 158.48 61.77   Q 158.42 62.13 159.14 62.90   A 1.21 1.11 -20.9 0 0 160.00 63.24   Q 163.23 63.18 166.44 63.44   Q 170.92 63.79 172.57 63.50   Q 175.67 62.95 178.40 61.21   A 2.32 2.18 -22.8 0 0 179.44 58.87   L 178.32 53.54   A 1.08 0.87 10.4 0 0 177.73 52.86   Q 174.38 51.29 173.31 48.19   Q 171.84 43.92 173.52 40.07   Q 173.69 39.67 177.61 33.53   Q 182.14 26.46 186.31 21.31   Q 194.01 11.83 205.44 17.56   Q 207.59 18.64 208.49 22.75   Q 210.31 31.13 210.48 39.70   Q 210.50 40.77 211.18 43.66   Q 212.07 47.41 208.61 49.68   A 1.06 0.74 -22.1 0 0 208.12 50.43   L 208.17 56.26   A 0.88 0.68 13.3 0 0 208.72 56.94   Q 216.73 60.22 225.26 61.67   A 1.00 0.98 -62.2 0 0 226.11 61.40   Q 230.25 57.30 233.81 55.06   Q 241.11 50.48 254.75 42.93   A 0.91 0.90 -12.6 0 0 255.22 42.19   Q 255.58 36.43 255.67 30.66   Q 255.70 28.68 254.79 27.19   Q 253.71 25.43 252.50 24.25   Q 245.86 17.78 250.69 9.19   Q 252.35 6.23 254.11 5.14   Q 260.77 1.02 268.56 0.00   Z"/>
<path fill="#0b8e36" d="   M 654.63 81.01   Q 656.89 83.26 659.67 86.05   Q 661.47 87.86 659.71 89.70   Q 649.28 100.60 633.00 101.79   Q 626.77 102.24 620.73 101.15   Q 614.88 100.09 609.21 97.29   Q 592.80 89.20 586.75 72.41   Q 583.29 62.80 584.14 52.77   Q 585.20 40.11 592.69 30.06   Q 598.83 21.82 607.63 16.98   Q 619.81 10.27 634.74 11.80   Q 648.45 13.21 659.80 23.30   Q 661.19 24.53 660.06 26.01   Q 657.56 29.28 654.04 32.83   Q 653.96 32.92 652.94 34.12   Q 651.12 36.27 648.69 34.31   Q 642.22 29.11 634.58 27.72   Q 627.14 26.36 619.68 29.28   Q 608.47 33.66 604.03 44.70   Q 600.54 53.37 602.19 62.09   Q 603.36 68.32 607.07 73.54   Q 610.56 78.46 616.11 81.67   Q 630.77 90.13 646.30 80.22   Q 646.36 80.19 648.20 78.75   Q 650.89 76.66 653.13 79.27   Q 654.56 80.93 654.63 81.01   Z"/>
<path fill="#0b8e36" d="   M 758.45 56.75   A 45.25 45.25 0.0 0 1 713.20 102.00   A 45.25 45.25 0.0 0 1 667.95 56.75   A 45.25 45.25 0.0 0 1 713.20 11.50   A 45.25 45.25 0.0 0 1 758.45 56.75   Z   M 741.99 56.75   A 28.80 28.80 0.0 0 0 713.19 27.95   A 28.80 28.80 0.0 0 0 684.39 56.75   A 28.80 28.80 0.0 0 0 713.19 85.55   A 28.80 28.80 0.0 0 0 741.99 56.75   Z"/>
<path fill="#0b8e36" d="   M 952.27 52.82   Q 951.19 50.37 950.79 53.02   Q 947.39 75.25 944.00 97.25   Q 943.54 100.22 941.40 100.73   Q 941.30 100.75 937.60 100.75   Q 934.05 100.75 930.48 100.75   Q 927.25 100.75 927.81 97.56   L 942.73 13.37   A 2.33 2.32 -4.3 0 1 944.28 11.57   Q 948.41 10.21 949.94 14.06   Q 950.64 15.83 950.67 15.90   Q 963.52 43.32 976.39 71.26   Q 976.97 72.51 977.55 71.26   L 1004.57 13.33   A 2.73 2.72 -83.6 0 1 1006.44 11.83   Q 1009.00 11.28 1010.24 11.98   Q 1011.11 12.46 1011.54 14.89   Q 1018.98 56.68 1026.25 98.51   A 1.72 1.71 82.9 0 1 1024.69 100.52   Q 1020.43 100.85 1015.95 100.79   Q 1012.54 100.75 1012.07 100.62   Q 1010.01 100.08 1009.78 97.59   Q 1009.63 95.99 1009.62 95.93   Q 1006.23 74.72 1002.93 53.04   Q 1002.55 50.57 1001.53 52.85   L 980.02 100.86   A 1.43 1.37 89.9 0 1 979.36 101.55   Q 975.04 103.73 973.25 99.75   Q 962.52 75.94 952.27 52.82   Z"/>
<path fill="#0b8e36" d="   M 1069.36 12.82   Q 1069.41 12.71 1069.51 12.64   Q 1073.00 10.09 1074.83 12.76   Q 1074.85 12.80 1076.67 16.75   Q 1095.10 56.87 1113.51 97.01   Q 1115.20 100.70 1111.21 100.70   L 1100.05 100.69   Q 1098.26 100.69 1097.51 99.09   L 1091.02 85.22   A 0.82 0.78 77.0 0 0 1090.30 84.75   L 1053.80 84.75   A 1.17 1.13 -77.4 0 0 1052.76 85.44   L 1046.75 98.55   Q 1045.74 100.75 1043.23 100.75   Q 1038.12 100.75 1033.25 100.65   Q 1029.31 100.56 1030.12 97.82   Q 1030.14 97.76 1031.51 94.81   Q 1049.63 55.56 1069.36 12.82   Z   M 1064.31 59.38   Q 1062.14 64.29 1059.68 69.76   A 0.70 0.70 -78.0 0 0 1060.32 70.75   L 1083.29 70.75   A 0.90 0.90 77.5 0 0 1084.10 69.47   L 1072.61 44.40   Q 1071.83 42.68 1071.04 44.40   Q 1067.77 51.58 1064.31 59.38   Z"/>
<path fill="#0b8e36" d="   M 1289.70 56.75   A 45.24 45.24 0.0 0 1 1244.46 101.99   A 45.24 45.24 0.0 0 1 1199.22 56.75   A 45.24 45.24 0.0 0 1 1244.46 11.51   A 45.24 45.24 0.0 0 1 1289.70 56.75   Z   M 1273.26 56.75   A 28.80 28.80 0.0 0 0 1244.46 27.95   A 28.80 28.80 0.0 0 0 1215.66 56.75   A 28.80 28.80 0.0 0 0 1244.46 85.55   A 28.80 28.80 0.0 0 0 1273.26 56.75   Z"/>
<path fill="#0b8e36" d="   M 1308.16 28.41   Q 1315.82 18.73 1327.49 14.58   Q 1352.09 5.83 1372.81 22.19   Q 1375.90 24.62 1373.48 27.23   Q 1369.98 30.98 1365.82 35.05   A 1.17 1.17 40.3 0 1 1364.34 35.17   Q 1361.90 33.47 1359.55 31.96   Q 1347.23 24.07 1334.06 29.06   Q 1326.38 31.98 1321.69 38.46   Q 1317.39 44.41 1316.23 52.36   Q 1314.73 62.65 1319.89 71.30   Q 1324.55 79.12 1332.30 82.86   Q 1340.53 86.85 1350.15 84.74   Q 1353.62 83.98 1357.14 82.20   Q 1360.63 80.43 1363.50 78.24   Q 1364.97 77.12 1366.22 78.39   L 1373.80 86.10   Q 1375.73 88.06 1373.62 90.04   Q 1366.26 96.89 1357.34 99.82   Q 1348.94 102.58 1338.95 101.68   Q 1319.37 99.92 1307.06 83.94   Q 1301.14 76.24 1299.08 66.39   Q 1297.08 56.87 1299.04 47.60   Q 1301.26 37.13 1308.16 28.41   Z"/>
<path fill="#0b8e36" d="   M 1399.86 85.53   Q 1397.23 91.54 1394.50 97.50   Q 1393.02 100.74 1390.00 100.76   Q 1385.54 100.79 1381.07 100.72   Q 1379.02 100.68 1378.14 100.18   Q 1376.44 99.20 1377.58 97.03   Q 1378.20 95.86 1378.22 95.82   Q 1396.97 55.14 1415.79 14.49   Q 1416.81 12.28 1417.97 11.66   Q 1419.52 10.83 1421.03 11.95   Q 1421.90 12.59 1422.66 14.23   Q 1442.00 56.04 1461.00 98.01   Q 1462.04 100.30 1459.54 100.52   Q 1456.14 100.82 1452.62 100.80   Q 1447.97 100.78 1447.41 100.65   Q 1444.60 99.99 1443.31 96.69   Q 1442.39 94.32 1438.27 85.39   A 0.82 0.81 78.5 0 0 1437.57 84.92   Q 1419.06 84.39 1400.56 85.05   A 0.79 0.77 -78.8 0 0 1399.86 85.53   Z   M 1411.54 59.12   Q 1409.08 64.51 1406.93 70.03   A 0.36 0.35 -78.3 0 0 1407.24 70.52   L 1430.70 70.74   A 0.73 0.72 77.8 0 0 1431.35 69.71   L 1419.74 44.24   Q 1418.99 42.59 1418.26 44.24   Q 1414.92 51.70 1411.54 59.12   Z"/>
<path fill="#0b8e36" d="   M 1525.43 44.80   Q 1524.57 43.85 1524.56 45.13   Q 1524.46 70.42 1524.50 96.01   Q 1524.50 96.16 1524.58 97.47   Q 1524.81 101.10 1520.74 100.93   Q 1516.50 100.75 1512.26 100.96   Q 1508.79 101.12 1508.27 98.49   Q 1508.25 98.38 1508.25 94.51   Q 1508.25 54.76 1508.08 15.00   Q 1508.06 10.73 1513.05 11.60   A 3.59 3.52 -16.3 0 1 1515.07 12.68   L 1565.66 66.53   Q 1566.24 67.14 1566.24 66.30   L 1566.24 15.52   Q 1566.24 12.81 1568.89 12.80   L 1579.92 12.74   Q 1582.75 12.73 1582.75 15.59   Q 1582.75 55.80 1582.75 95.61   Q 1582.75 95.70 1582.88 97.89   Q 1583.17 102.83 1577.81 102.02   A 1.46 1.37 71.2 0 1 1576.97 101.57   L 1525.43 44.80   Z"/>
<path fill="#0b8e36" d="   M 1861.94 27.19   Q 1864.89 19.62 1871.60 15.61   Q 1877.18 12.26 1885.42 11.69   Q 1900.55 10.64 1913.83 20.06   Q 1915.60 21.31 1914.66 23.26   Q 1912.56 27.61 1908.97 31.92   Q 1907.33 33.89 1905.16 32.53   Q 1900.00 29.30 1893.59 26.88   Q 1884.91 23.60 1879.35 29.28   Q 1876.83 31.85 1876.83 35.02   Q 1876.82 38.57 1879.44 41.31   Q 1883.18 45.24 1889.19 47.56   Q 1892.83 48.97 1899.90 52.24   Q 1907.42 55.72 1912.29 61.87   Q 1917.23 68.12 1917.77 75.19   Q 1918.18 80.44 1916.23 85.41   Q 1914.45 89.96 1910.55 93.72   Q 1904.16 99.89 1895.59 101.40   Q 1886.97 102.92 1877.48 100.54   Q 1868.52 98.29 1860.98 91.91   Q 1859.47 90.63 1860.41 89.01   L 1865.45 80.35   Q 1866.44 78.64 1868.39 79.30   Q 1869.90 79.80 1871.99 81.23   Q 1876.85 84.53 1882.35 86.54   Q 1889.14 89.01 1894.67 85.89   Q 1898.42 83.77 1899.55 80.07   Q 1900.86 75.79 1897.94 71.81   Q 1894.99 67.80 1888.91 65.22   Q 1878.90 60.97 1872.56 56.94   Q 1869.52 55.01 1866.57 51.73   Q 1863.72 48.57 1862.25 45.18   Q 1858.39 36.28 1861.94 27.19   Z"/>
<path fill="#0b8e36" d="   M 535.31 85.44   L 572.08 85.74   Q 574.25 85.75 574.25 87.95   Q 574.25 92.26 574.25 95.73   Q 574.25 95.77 574.34 97.27   Q 574.56 100.72 570.50 100.75   Q 545.12 100.94 520.38 100.51   Q 518.50 100.48 518.50 98.60   L 518.50 15.29   Q 518.50 12.75 521.04 12.75   Q 545.32 12.75 569.39 12.75   Q 569.50 12.75 571.10 12.65   Q 574.53 12.44 574.35 15.86   Q 574.26 17.57 574.26 17.64   Q 574.29 21.77 574.19 25.70   Q 574.15 27.75 572.09 27.75   L 535.42 27.75   A 0.67 0.67 89.9 0 0 534.75 28.42   L 534.81 47.93   A 0.51 0.50 90.0 0 0 535.31 48.44   L 565.79 48.50   Q 567.90 48.50 568.07 50.60   Q 568.41 55.01 568.25 60.06   Q 568.18 62.20 567.17 62.95   Q 565.96 63.85 563.75 63.75   Q 556.86 63.44 535.44 63.93   A 0.53 0.51 -0.6 0 0 534.92 64.44   L 534.80 84.95   A 0.52 0.49 0.6 0 0 535.31 85.44   Z"/>
<path fill="#0b8e36" d="   M 790.07 85.69   Q 806.28 85.18 821.71 85.72   Q 824.00 85.80 824.00 88.10   Q 824.00 91.95 824.00 95.30   Q 824.00 95.47 824.12 97.18   Q 824.32 100.21 821.80 100.69   Q 821.55 100.74 818.18 100.76   Q 796.35 100.92 774.74 100.50   A 1.26 1.26 0.7 0 1 773.50 99.26   Q 772.88 56.63 773.50 13.99   A 1.01 0.96 -90.0 0 1 774.45 12.99   L 786.98 12.80   Q 789.43 12.77 789.44 15.34   L 789.56 85.20   A 0.50 0.49 -0.6 0 0 790.07 85.69   Z"/>
<path fill="#0b8e36" d="   M 852.06 85.44   L 889.11 85.74   A 1.86 1.84 87.4 0 1 890.92 87.41   Q 891.55 93.72 891.00 98.64   Q 890.76 100.75 888.64 100.75   L 837.98 100.75   Q 835.00 100.75 835.00 97.77   Q 835.00 58.25 834.83 18.00   Q 834.82 16.12 835.33 14.26   A 2.05 2.04 -82.4 0 1 837.30 12.75   L 889.07 12.81   A 1.87 1.86 86.9 0 1 890.92 14.48   Q 891.58 20.62 891.04 25.60   Q 890.81 27.75 888.62 27.76   L 852.20 27.93   A 0.53 0.51 0.6 0 0 851.67 28.43   L 851.51 47.63   A 0.88 0.87 0.0 0 0 852.39 48.50   L 882.68 48.50   A 1.97 1.97 86.9 0 1 884.64 50.26   Q 885.35 56.75 884.87 61.14   Q 884.59 63.75 881.97 63.75   L 852.05 63.75   A 0.55 0.55 -89.9 0 0 851.50 64.30   L 851.56 84.95   A 0.51 0.49 0.6 0 0 852.06 85.44   Z"/>
<path fill="#0b8e36" d="   M 1153.44 66.51   Q 1146.83 65.90 1140.52 66.41   A 0.84 0.83 87.8 0 0 1139.75 67.25   Q 1139.75 81.33 1139.75 94.95   Q 1139.75 95.03 1139.88 97.04   Q 1140.16 101.22 1135.49 100.98   Q 1131.00 100.75 1126.50 100.72   Q 1123.27 100.69 1123.44 97.59   Q 1123.50 96.50 1123.50 96.40   Q 1123.50 55.70 1123.50 14.98   Q 1123.50 12.75 1125.73 12.75   Q 1144.12 12.75 1163.00 12.75   Q 1170.20 12.75 1176.99 17.55   Q 1190.26 26.94 1188.96 41.64   Q 1188.27 49.51 1183.69 55.47   Q 1178.94 61.67 1171.31 64.71   A 0.85 0.83 64.6 0 0 1170.90 65.89   L 1187.82 97.21   Q 1189.59 100.48 1185.95 100.54   L 1172.67 100.72   A 2.67 2.53 75.5 0 1 1170.34 99.26   L 1154.16 67.02   A 0.94 0.89 78.8 0 0 1153.44 66.51   Z   M 1172.06 44.31   Q 1174.34 37.43 1169.59 32.15   Q 1165.78 27.90 1160.00 27.84   Q 1151.00 27.75 1140.78 27.75   A 0.78 0.78 -89.9 0 0 1140.00 28.53   L 1140.00 52.23   A 0.52 0.52 90.0 0 0 1140.52 52.75   Q 1148.90 52.75 1156.99 52.75   Q 1163.10 52.75 1165.81 51.50   Q 1170.38 49.38 1172.06 44.31   Z"/>
<rect fill="#0b8e36" x="-8.33" y="-43.98" transform="translate(1478.91,56.73) rotate(-0.1)" width="16.66" height="87.96" rx="2.64"/>
<path fill="#0b8e36" d="   M 1620.31 28.45   L 1620.26 47.74   A 0.76 0.75 0.4 0 0 1621.02 48.50   L 1651.21 48.50   Q 1653.75 48.50 1653.75 51.04   L 1653.75 61.07   Q 1653.75 63.48 1651.36 63.51   L 1620.93 63.93   A 0.52 0.51 -0.0 0 0 1620.42 64.43   L 1620.27 84.66   A 0.88 0.84 0.3 0 0 1621.15 85.51   L 1657.76 85.73   Q 1659.75 85.74 1659.75 87.77   L 1659.75 98.37   Q 1659.75 100.52 1657.60 100.56   Q 1631.40 101.08 1606.00 100.52   Q 1604.00 100.47 1604.00 98.47   L 1604.06 15.05   Q 1604.06 12.75 1606.37 12.75   L 1657.83 12.75   A 1.87 1.84 -0.2 0 1 1659.70 14.58   L 1659.75 25.54   Q 1659.76 27.75 1657.52 27.75   L 1621.02 27.75   A 0.71 0.70 0.0 0 0 1620.31 28.45   Z"/>
<path fill="#0b8e36" d="   M 1702.44 15.02   Q 1702.46 12.75 1704.73 12.75   Q 1717.03 12.75 1729.31 12.75   Q 1739.62 12.75 1745.06 14.12   Q 1760.18 17.93 1769.43 30.07   Q 1775.61 38.18 1777.71 48.07   Q 1781.01 63.64 1773.00 78.00   Q 1764.11 93.95 1746.91 98.85   Q 1741.13 100.50 1730.42 100.67   Q 1718.21 100.87 1706.00 100.75   Q 1703.03 100.72 1702.40 98.75   Q 1702.25 98.31 1702.24 95.24   Q 1702.12 55.09 1702.44 15.02   Z   M 1718.77 84.88   A 0.60 0.59 1.0 0 0 1719.35 85.47   Q 1724.06 85.59 1728.28 85.47   Q 1734.75 85.27 1737.20 84.97   Q 1752.11 83.13 1758.44 69.44   Q 1763.44 58.60 1759.99 47.87   Q 1757.07 38.81 1749.98 33.44   Q 1742.59 27.83 1732.25 27.81   Q 1726.50 27.80 1719.44 27.74   A 0.92 0.92 0.3 0 0 1718.51 28.66   L 1718.77 84.88   Z"/>
<path fill="#0b8e36" d="   M 1810.31 85.44   Q 1828.15 85.55 1846.00 85.51   Q 1849.88 85.50 1849.63 89.04   Q 1849.50 90.91 1849.50 90.96   Q 1849.50 93.29 1849.50 95.61   Q 1849.50 95.69 1849.62 97.39   Q 1849.86 100.86 1846.00 100.85   Q 1821.03 100.80 1796.21 100.69   Q 1793.50 100.68 1793.50 97.96   L 1793.50 14.73   Q 1793.50 12.75 1795.48 12.75   L 1847.14 12.75   Q 1849.50 12.75 1849.47 15.00   L 1849.31 25.97   A 1.92 1.80 0.3 0 1 1847.39 27.75   L 1810.43 27.75   A 0.69 0.67 90.0 0 0 1809.76 28.44   L 1809.76 47.72   A 0.78 0.76 -90.0 0 0 1810.52 48.50   L 1840.97 48.50   Q 1843.25 48.50 1843.25 50.78   L 1843.25 61.31   Q 1843.25 63.48 1841.09 63.51   L 1810.44 63.93   A 0.53 0.51 -0.6 0 0 1809.92 64.44   L 1809.80 84.95   A 0.51 0.49 0.0 0 0 1810.31 85.44   Z"/>
<path fill="#0b8e36" d="   M 523.72 163.46   Q 529.28 156.62 538.09 155.22   Q 554.57 152.60 567.79 162.21   Q 569.88 163.73 568.51 165.73   L 563.30 173.33   Q 562.10 175.08 560.18 173.85   Q 555.09 170.58 549.27 168.46   Q 544.56 166.74 539.90 168.55   Q 534.07 170.80 534.26 175.93   Q 534.39 179.57 537.58 182.59   Q 540.36 185.22 544.19 186.81   Q 547.96 188.38 554.99 191.76   Q 558.94 193.66 562.34 196.34   Q 566.04 199.27 568.18 202.60   Q 571.80 208.24 571.50 214.71   Q 571.13 222.52 565.81 228.62   Q 560.45 234.75 551.75 236.25   Q 534.48 239.22 520.44 228.40   Q 518.22 226.69 519.62 224.28   L 523.57 217.46   Q 524.69 215.53 526.74 216.44   Q 528.45 217.19 530.92 218.83   Q 536.34 222.42 542.77 223.38   Q 550.98 224.61 554.15 218.41   Q 555.64 215.48 554.77 212.43   Q 553.84 209.20 551.19 207.06   Q 546.98 203.68 540.55 201.23   Q 532.75 198.25 526.50 192.74   Q 518.57 185.74 519.23 175.00   Q 519.63 168.49 523.72 163.46   Z"/>
<path fill="#0b8e36" d="   M 588.86 169.33   Q 602.83 152.89 624.75 154.71   Q 636.96 155.72 646.15 163.60   Q 646.25 163.69 647.56 164.66   Q 649.98 166.45 647.53 169.03   Q 644.49 172.23 640.99 175.63   A 1.83 1.82 -46.5 0 1 638.54 175.70   Q 634.30 172.04 629.00 170.26   Q 623.77 168.51 618.34 168.97   Q 607.45 169.89 600.44 179.19   Q 596.54 184.35 595.70 190.78   Q 593.73 205.76 603.20 214.69   Q 609.48 220.60 617.64 221.65   Q 626.15 222.75 634.25 217.96   Q 636.67 216.53 639.07 215.06   A 1.28 1.18 -37.9 0 1 640.58 215.19   L 647.85 222.27   Q 649.59 223.96 647.88 225.82   Q 640.20 234.14 627.73 236.15   Q 605.53 239.71 590.31 224.19   Q 581.14 214.83 579.25 201.25   Q 576.79 183.54 588.86 169.33   Z"/>
<path fill="#0b8e36" d="   M 777.33 184.99   Q 776.53 184.12 776.56 185.30   Q 777.05 210.22 776.52 233.98   A 1.82 1.81 0.6 0 1 774.70 235.75   L 763.74 235.75   A 1.75 1.75 89.0 0 1 761.99 234.06   Q 761.57 220.46 761.77 206.75   Q 761.92 196.46 761.78 186.75   Q 761.57 172.83 761.95 158.90   Q 762.02 156.24 762.75 155.27   Q 763.79 153.88 765.88 154.41   Q 767.11 154.72 768.36 156.04   Q 790.91 179.80 813.47 203.86   Q 814.75 205.22 814.75 203.36   L 814.75 157.57   A 1.86 1.85 86.9 0 1 816.40 155.72   Q 822.03 155.12 827.70 155.67   Q 829.50 155.85 829.50 157.65   L 829.50 235.10   A 1.72 1.72 -8.1 0 1 828.26 236.75   Q 825.79 237.46 824.04 236.22   Q 823.83 236.07 821.37 233.36   Q 799.20 208.94 777.33 184.99   Z"/>
<path fill="#0b8e36" d="   M 853.31 169.04   Q 867.38 152.77 889.24 154.81   Q 902.69 156.06 912.45 165.32   A 1.73 1.73 -50.6 0 1 912.67 167.57   Q 909.95 171.40 904.87 175.86   A 1.39 1.39 44.0 0 1 903.08 175.89   Q 897.52 171.31 891.06 169.66   Q 884.45 167.97 877.97 169.82   Q 871.70 171.62 867.13 176.25   Q 862.99 180.44 860.82 186.68   Q 855.85 201.01 865.94 213.31   Q 869.93 218.18 876.12 220.36   Q 881.84 222.36 888.03 221.62   Q 896.32 220.64 903.07 215.05   A 1.26 1.16 -41.9 0 1 904.69 215.07   L 912.23 222.55   Q 913.97 224.28 912.04 226.09   Q 902.98 234.61 890.72 236.26   Q 868.90 239.20 854.19 223.81   Q 845.04 214.24 843.57 200.49   Q 841.65 182.52 853.31 169.04   Z"/>
<path fill="#0b8e36" d="   M 993.99 192.50   Q 989.06 188.10 987.48 182.12   Q 985.98 176.41 987.72 170.42   Q 989.50 164.30 994.36 160.26   Q 998.41 156.89 1004.98 155.44   Q 1021.50 151.81 1035.13 161.96   Q 1037.19 163.49 1035.99 165.77   Q 1033.29 170.91 1030.40 173.73   A 1.86 1.84 -50.1 0 1 1028.08 173.95   Q 1022.41 170.17 1015.96 168.33   Q 1011.74 167.13 1008.96 167.81   Q 1006.42 168.43 1004.47 170.21   Q 1002.61 171.90 1002.12 174.45   Q 1001.07 180.06 1006.06 183.44   Q 1010.28 186.29 1016.78 189.17   Q 1025.01 192.81 1026.84 193.98   Q 1031.87 197.19 1035.19 201.56   Q 1038.25 205.61 1039.02 210.84   Q 1039.72 215.60 1038.09 220.52   Q 1035.28 229.04 1027.78 233.22   Q 1021.48 236.73 1012.74 236.86   Q 999.58 237.06 988.05 228.36   Q 985.82 226.68 987.21 224.36   L 991.27 217.60   Q 992.74 215.14 995.17 216.80   Q 1001.28 220.98 1008.32 223.15   Q 1010.90 223.95 1013.58 223.73   Q 1018.67 223.30 1021.14 219.76   Q 1023.46 216.44 1022.33 212.41   Q 1021.24 208.47 1017.31 205.94   Q 1013.19 203.28 1009.64 201.95   Q 1000.92 198.67 993.99 192.50   Z"/>
<path fill="#0b8e36" d="   M 1303.95 169.44   Q 1300.44 170.29 1297.81 168.94   Q 1291.50 165.70 1294.31 158.56   Q 1295.00 156.82 1297.22 155.63   Q 1298.99 154.67 1301.06 154.56   Q 1306.90 154.24 1309.56 159.69   Q 1311.49 163.62 1310.89 168.74   Q 1309.59 179.99 1300.62 187.45   A 1.65 1.64 -47.8 0 1 1298.65 187.55   Q 1294.53 184.74 1297.42 182.50   Q 1298.60 181.59 1298.64 181.55   Q 1303.79 176.83 1304.40 169.81   A 0.36 0.35 -4.8 0 0 1303.95 169.44   Z"/>
<path fill="#0b8e36" d="   M 1371.96 184.70   Q 1371.27 184.67 1371.40 185.71   Q 1371.50 186.57 1371.50 186.79   Q 1371.68 210.77 1371.26 234.02   A 1.76 1.76 -89.5 0 1 1369.50 235.75   Q 1365.05 235.75 1361.23 235.75   Q 1361.14 235.75 1359.78 235.85   Q 1357.98 235.99 1357.20 234.69   Q 1356.75 233.94 1356.75 232.22   Q 1356.75 194.85 1356.75 156.68   Q 1356.75 154.91 1358.48 154.53   Q 1361.49 153.86 1363.36 156.08   Q 1364.28 157.17 1364.34 157.24   Q 1386.37 180.31 1408.62 204.29   Q 1409.44 205.17 1409.44 203.97   Q 1409.55 183.59 1409.50 162.50   Q 1409.49 158.58 1410.26 156.41   A 0.84 0.80 5.0 0 1 1410.93 155.87   Q 1417.34 154.97 1422.82 155.79   A 1.97 1.97 -85.8 0 1 1424.50 157.74   L 1424.50 234.50   A 2.46 2.44 -16.9 0 1 1423.40 236.54   Q 1421.33 237.92 1419.45 236.56   Q 1419.11 236.31 1416.97 234.00   Q 1395.39 210.58 1374.06 186.94   Q 1373.09 185.86 1372.68 185.25   A 1.13 0.58 64.8 0 0 1371.96 184.70   Z"/>
<path fill="#0b8e36" d="   M 1493.20 209.51   Q 1488.65 209.01 1485.50 209.25   Q 1482.13 209.51 1482.29 206.24   Q 1482.50 202.25 1482.50 198.19   Q 1482.50 196.00 1484.69 196.00   L 1506.31 196.00   Q 1508.51 196.00 1508.53 198.15   L 1508.73 226.64   Q 1508.74 228.65 1506.96 229.73   Q 1500.69 233.49 1493.11 235.19   Q 1485.64 236.86 1478.45 236.79   Q 1461.86 236.62 1450.00 224.75   Q 1440.70 215.45 1438.72 202.71   Q 1437.17 192.82 1440.27 182.97   Q 1444.48 169.58 1456.01 161.77   Q 1464.34 156.14 1474.55 154.87   Q 1492.56 152.62 1507.07 165.01   Q 1508.89 166.57 1507.30 168.24   L 1499.73 176.16   A 1.23 1.16 41.9 0 1 1498.08 176.20   Q 1490.19 169.45 1480.53 169.29   Q 1473.10 169.17 1467.06 172.87   Q 1460.80 176.69 1457.31 183.75   Q 1452.46 193.54 1455.50 203.50   Q 1457.34 209.53 1461.73 214.07   Q 1465.88 218.37 1471.80 220.36   Q 1482.24 223.86 1493.10 219.26   A 0.83 0.74 -12.4 0 0 1493.60 218.57   L 1493.71 210.06   A 0.56 0.54 3.4 0 0 1493.20 209.51   Z"/>
<path fill="#0b8e36" d="   M 1605.32 184.99   Q 1604.71 184.31 1604.71 185.22   L 1604.51 233.95   A 1.62 1.49 89.8 0 1 1603.04 235.56   L 1592.21 235.70   Q 1590.02 235.73 1589.99 233.43   Q 1589.58 197.90 1589.74 161.59   Q 1589.76 156.94 1589.77 156.91   Q 1590.24 154.10 1593.30 154.41   Q 1594.96 154.57 1596.52 156.22   Q 1619.02 179.98 1641.54 203.92   Q 1642.71 205.16 1642.67 203.45   Q 1642.20 181.47 1642.78 157.36   A 1.69 1.69 87.4 0 1 1644.27 155.73   Q 1649.65 155.14 1656.10 155.78   A 1.57 1.57 -86.9 0 1 1657.50 157.34   Q 1657.50 194.92 1657.50 231.86   Q 1657.50 231.92 1657.60 233.64   Q 1657.78 236.74 1655.19 237.03   Q 1653.43 237.23 1651.84 235.77   Q 1650.75 234.77 1649.19 233.06   Q 1626.99 208.88 1605.32 184.99   Z"/>
<rect fill="#0b8e36" x="661.71" y="155.56" width="15.02" height="80.18" rx="2.14"/>
<path fill="#0b8e36" d="   M 711.57 221.94   Q 728.03 222.05 744.50 222.00   Q 747.32 221.99 747.12 224.68   Q 747.00 226.26 747.00 226.32   Q 747.00 229.81 747.00 233.52   Q 747.00 235.75 744.77 235.75   Q 722.31 235.75 700.83 235.75   Q 700.74 235.75 699.17 235.84   Q 695.71 236.05 695.91 232.58   Q 696.00 230.97 696.00 230.93   Q 696.00 196.27 696.00 161.61   Q 696.00 161.49 695.87 159.40   Q 695.60 155.13 699.88 155.37   Q 701.99 155.49 702.13 155.49   Q 723.80 155.33 744.95 155.74   Q 747.01 155.78 747.00 157.81   L 746.95 167.27   Q 746.94 169.25 744.93 169.25   L 711.95 169.25   A 0.95 0.95 0.0 0 0 711.00 170.20   L 711.00 187.26   A 0.92 0.92 -0.6 0 0 711.94 188.18   Q 723.98 187.87 736.37 187.99   Q 736.42 187.99 738.13 187.91   Q 741.55 187.74 741.34 191.18   Q 741.25 192.74 741.25 192.85   Q 741.25 196.71 741.25 199.81   Q 741.25 202.00 739.06 202.00   L 711.77 202.00   A 0.76 0.75 -0.4 0 0 711.01 202.76   L 711.06 221.45   A 0.51 0.49 0.0 0 0 711.57 221.94   Z"/>
<path fill="#0b8e36" d="   M 941.31 221.94   L 975.00 222.23   Q 976.93 222.25 976.93 224.14   L 976.95 233.25   Q 976.96 235.75 974.37 235.75   Q 951.25 235.75 929.00 235.75   Q 926.56 235.75 926.09 234.15   Q 926.00 233.86 926.00 231.34   Q 926.00 195.05 926.00 158.75   Q 926.00 155.46 928.81 155.46   Q 950.78 155.45 974.33 155.50   Q 976.26 155.51 976.68 157.38   Q 977.40 160.59 976.83 166.91   Q 976.62 169.19 974.35 169.20   L 942.15 169.25   A 1.40 1.40 -89.7 0 0 940.75 170.65   L 940.75 187.48   A 0.52 0.52 90.0 0 0 941.27 188.00   L 968.57 188.00   Q 971.25 188.00 971.25 190.68   Q 971.25 194.04 971.25 197.56   Q 971.25 197.64 971.32 198.96   Q 971.51 202.31 968.13 202.10   Q 966.42 202.00 966.36 202.00   Q 954.51 202.00 941.52 202.00   A 0.76 0.75 -0.4 0 0 940.76 202.76   L 940.81 221.45   A 0.51 0.49 0.6 0 0 941.31 221.94   Z"/>
<path fill="#0b8e36" d="   M 1076.43 157.84   Q 1076.45 155.54 1078.75 155.51   Q 1090.31 155.38 1101.21 155.56   Q 1112.03 155.74 1117.59 157.48   Q 1128.65 160.93 1136.31 169.94   Q 1141.54 176.08 1143.91 183.86   Q 1146.17 191.29 1145.52 199.30   Q 1144.34 213.57 1134.06 223.81   Q 1122.08 235.75 1106.25 235.75   Q 1092.75 235.75 1079.25 235.75   Q 1076.01 235.75 1076.18 232.85   Q 1076.25 231.75 1076.25 231.64   Q 1076.11 194.30 1076.43 157.84   Z   M 1123.79 212.79   Q 1128.59 207.14 1129.55 199.76   Q 1131.09 187.96 1124.49 179.38   Q 1120.83 174.63 1115.70 172.13   Q 1110.44 169.56 1104.25 169.53   Q 1098.62 169.50 1091.81 169.50   A 0.81 0.81 -89.9 0 0 1091.00 170.31   L 1091.06 221.20   A 0.52 0.50 0.6 0 0 1091.57 221.70   Q 1101.66 221.85 1105.00 221.75   Q 1116.47 221.41 1123.79 212.79   Z"/>
<path fill="#0b8e36" d="   M 1174.81 187.94   L 1202.45 188.06   Q 1204.53 188.07 1204.56 190.01   L 1204.74 199.66   Q 1204.79 201.94 1202.40 201.94   L 1175.15 202.00   A 0.89 0.87 -0.0 0 0 1174.26 202.87   L 1174.42 221.56   A 0.52 0.49 0.0 0 0 1174.94 222.05   L 1208.50 222.24   A 1.80 1.76 -89.8 0 1 1210.25 224.04   L 1210.25 233.89   Q 1210.25 235.75 1208.39 235.75   Q 1185.85 235.75 1164.16 235.75   Q 1164.07 235.75 1162.36 235.88   Q 1159.26 236.11 1159.26 232.75   Q 1159.25 195.88 1159.25 159.00   Q 1159.25 155.22 1162.73 155.41   Q 1164.17 155.49 1164.28 155.49   Q 1186.63 155.32 1208.47 155.74   A 1.81 1.81 0.5 0 1 1210.25 157.55   Q 1210.25 162.00 1210.45 166.24   Q 1210.58 168.81 1208.71 169.22   Q 1208.57 169.25 1205.79 169.25   Q 1190.62 169.25 1174.92 169.25   A 0.67 0.67 0.0 0 0 1174.25 169.92   L 1174.31 187.45   A 0.50 0.49 0.0 0 0 1174.81 187.94   Z"/>
<path fill="#0b8e36" d="   M 1249.54 156.44   A 1.14 1.12 -81.4 0 1 1250.49 155.73   Q 1256.37 155.16 1262.17 155.72   Q 1264.00 155.89 1264.00 157.74   L 1264.06 221.45   A 0.65 0.63 0.5 0 0 1264.70 222.08   L 1294.02 222.25   A 1.31 1.26 86.9 0 1 1295.27 223.41   Q 1295.78 228.00 1295.10 234.14   A 1.81 1.81 -86.8 0 1 1293.30 235.75   Q 1273.63 235.75 1254.01 235.75   Q 1253.95 235.75 1252.49 235.84   Q 1249.00 236.06 1249.00 232.00   Q 1249.00 196.13 1248.77 160.25   Q 1248.75 158.39 1249.54 156.44   Z"/>
<rect fill="#0b8e36" x="1322.26" y="155.54" width="15.24" height="80.22" rx="2.44"/>
<path fill="#0b8e36" d="   M 1538.83 221.21   A 0.78 0.76 -89.6 0 0 1539.59 222.00   L 1572.71 222.00   Q 1574.66 222.00 1574.83 223.95   Q 1575.18 227.86 1575.21 232.75   Q 1575.22 236.05 1572.22 235.84   Q 1570.88 235.75 1570.77 235.75   Q 1549.81 235.75 1528.85 235.75   Q 1528.75 235.75 1527.15 235.85   Q 1523.69 236.06 1523.90 232.60   Q 1524.00 230.99 1524.00 230.90   Q 1524.00 195.06 1524.00 157.96   Q 1524.00 155.77 1526.18 155.73   Q 1547.44 155.32 1569.59 155.49   Q 1569.72 155.49 1571.39 155.41   Q 1575.30 155.21 1575.09 159.12   Q 1575.00 160.78 1575.00 160.89   Q 1575.02 163.44 1575.15 165.99   Q 1575.32 169.48 1572.24 169.36   Q 1570.34 169.29 1570.27 169.29   Q 1567.50 169.39 1562.50 169.25   Q 1553.15 168.99 1539.76 169.48   A 0.56 0.54 -0.6 0 0 1539.22 170.01   L 1539.02 187.49   A 0.52 0.50 0.5 0 0 1539.54 188.00   L 1567.02 188.00   Q 1569.25 188.00 1569.25 190.23   Q 1569.25 193.87 1569.25 197.50   Q 1569.25 197.59 1569.33 198.99   Q 1569.52 202.32 1566.13 202.11   Q 1564.46 202.00 1564.36 202.00   Q 1552.75 202.00 1539.89 202.00   A 0.94 0.91 -89.7 0 0 1538.98 202.93   L 1538.83 221.21   Z"/>
<rect fill="#0b8e36" x="1677.00" y="155.55" width="15.00" height="80.20" rx="2.17"/>
<path fill="#0b8e36" d="   M 1726.82 221.94   L 1760.61 222.24   A 1.68 1.66 86.9 0 1 1762.25 223.73   Q 1762.79 228.50 1762.14 234.20   A 1.75 1.74 3.1 0 1 1760.40 235.75   L 1713.37 235.75   A 1.81 1.81 89.8 0 1 1711.56 233.95   Q 1711.45 197.38 1711.50 160.10   Q 1711.50 160.05 1711.39 158.41   Q 1711.19 155.34 1714.44 155.46   Q 1715.46 155.50 1715.56 155.50   Q 1738.28 155.32 1761.00 155.75   A 1.21 1.21 -3.3 0 1 1762.18 156.80   Q 1762.81 161.15 1762.34 165.49   Q 1762.33 165.54 1762.30 167.02   Q 1762.23 169.52 1759.00 169.25   Q 1753.36 168.78 1727.00 169.49   A 0.54 0.51 -0.0 0 0 1726.47 169.99   L 1726.28 187.42   A 0.59 0.57 0.5 0 0 1726.87 188.00   L 1754.40 188.00   Q 1756.34 188.00 1756.56 189.93   Q 1757.11 194.78 1756.54 200.34   A 1.85 1.85 2.9 0 1 1754.70 202.00   L 1727.48 202.00   A 1.23 1.22 -0.0 0 0 1726.25 203.22   L 1726.31 221.45   A 0.52 0.49 0.6 0 0 1726.82 221.94   Z"/>
<path fill="#0b8e36" d="   M 1776.74 156.24   A 0.71 0.71 6.1 0 1 1777.36 155.74   Q 1781.45 155.41 1785.62 155.46   Q 1789.12 155.50 1789.38 155.56   Q 1791.59 156.04 1791.39 158.77   Q 1791.25 160.65 1791.25 160.75   Q 1791.21 180.00 1791.29 199.25   Q 1791.32 208.06 1792.82 211.93   Q 1796.05 220.24 1804.97 221.61   Q 1812.16 222.71 1817.48 219.15   Q 1821.61 216.39 1823.40 211.53   Q 1824.50 208.54 1824.50 202.32   Q 1824.50 180.41 1824.50 158.50   Q 1824.50 155.45 1827.75 155.41   Q 1833.26 155.35 1838.56 155.74   A 1.28 1.28 1.2 0 1 1839.75 156.98   Q 1840.29 179.87 1839.88 202.74   Q 1839.73 210.99 1838.48 215.12   Q 1836.53 221.59 1832.19 226.19   Q 1819.71 239.40 1803.13 236.54   Q 1792.47 234.70 1785.45 227.90   Q 1779.93 222.55 1777.65 214.98   Q 1776.27 210.43 1776.12 200.37   Q 1775.86 182.34 1775.99 164.30   Q 1775.99 164.22 1775.95 162.20   Q 1775.88 159.23 1776.74 156.24   Z"/>
<path fill="#0b8e36" d="   M 1885.43 204.55   L 1873.80 204.50   A 0.56 0.55 -90.0 0 0 1873.25 205.06   Q 1873.25 218.88 1873.25 232.00   Q 1873.25 236.08 1869.60 235.85   Q 1867.95 235.75 1867.89 235.75   Q 1864.52 235.75 1860.76 235.75   Q 1858.00 235.75 1858.00 232.99   L 1858.06 158.25   Q 1858.07 155.79 1860.52 155.72   Q 1873.50 155.32 1887.50 155.50   Q 1892.95 155.57 1896.90 156.10   Q 1901.80 156.75 1905.75 159.01   Q 1914.29 163.92 1917.19 173.56   Q 1918.91 179.29 1917.55 185.12   Q 1916.31 190.49 1912.52 195.10   Q 1908.21 200.37 1901.77 203.35   A 0.49 0.48 -26.6 0 0 1901.54 204.01   Q 1908.43 217.09 1915.59 230.03   Q 1916.80 232.21 1916.97 233.23   Q 1917.42 235.94 1913.97 235.80   Q 1912.58 235.75 1912.53 235.75   Q 1907.61 235.75 1902.25 235.75   A 1.06 1.04 -13.2 0 1 1901.31 235.18   L 1886.15 205.01   A 0.83 0.79 76.0 0 0 1885.43 204.55   Z   M 1901.02 187.04   Q 1903.90 182.77 1902.89 178.28   Q 1902.14 174.92 1899.56 172.36   Q 1896.74 169.56 1893.00 169.50   Q 1884.50 169.36 1874.43 169.23   A 1.17 1.16 -89.5 0 0 1873.25 170.40   L 1873.25 191.44   A 0.56 0.56 90.0 0 0 1873.81 192.00   Q 1880.41 192.00 1886.62 192.00   Q 1893.32 192.00 1894.36 191.77   Q 1898.43 190.87 1901.02 187.04   Z"/>
<rect fill="#d73f16" x="-13.87" y="-13.88" transform="translate(374.24,270.50) rotate(45.0)" width="27.74" height="27.76" rx="0.35"/>
<path fill="#575656" d="   M 555.71 288.40   Q 555.67 287.23 555.19 288.29   Q 547.89 304.25 541.00 319.25   Q 540.22 320.96 538.22 320.20   A 0.91 0.86 -85.9 0 1 537.66 319.51   L 532.01 287.78   Q 531.72 286.16 531.25 287.74   L 522.39 318.03   A 2.26 2.24 3.6 0 1 520.57 319.62   Q 516.85 320.20 517.70 317.48   Q 524.10 296.95 530.47 276.40   Q 530.90 275.04 531.72 274.65   Q 532.65 274.22 533.73 274.61   A 0.96 0.84 -87.0 0 1 534.28 275.31   L 540.28 309.19   Q 540.49 310.37 540.99 309.28   Q 548.38 293.04 555.88 276.88   Q 556.54 275.46 557.42 274.79   Q 559.92 272.88 560.07 277.25   Q 560.77 297.50 561.27 318.56   A 0.75 0.74 78.7 0 1 560.80 319.27   Q 558.38 320.23 556.90 319.30   A 1.02 0.85 -77.4 0 1 556.49 318.50   L 555.71 288.40   Z"/>
<path fill="#575656" d="   M 685.24 317.90   A 0.65 0.65 42.7 0 0 684.23 317.94   Q 682.26 320.53 680.63 319.33   A 0.92 0.78 -70.2 0 1 680.32 318.50   L 686.18 276.45   A 1.49 1.47 -2.7 0 1 687.32 275.22   Q 690.67 274.44 690.41 276.74   Q 689.44 285.43 688.05 294.10   Q 687.87 295.27 688.95 294.79   Q 694.07 292.53 698.01 294.66   Q 701.49 296.54 702.89 301.10   Q 704.52 306.43 702.12 312.09   Q 699.35 318.58 693.31 320.06   Q 688.26 321.30 685.24 317.90   Z   M 689.17 315.87   Q 690.61 316.68 692.19 316.23   Q 697.68 314.69 698.53 307.97   Q 700.14 295.15 688.06 298.90   A 1.09 1.06 85.5 0 0 687.31 299.80   Q 686.66 305.20 685.89 310.57   Q 685.43 313.75 689.17 315.87   Z"/>
<path fill="#575656" d="   M 840.29 294.42   Q 842.27 295.36 842.51 293.19   Q 843.33 285.74 844.23 279.98   Q 844.75 276.57 844.76 276.53   Q 845.57 274.12 848.82 275.27   A 0.65 0.65 14.1 0 1 849.25 275.98   L 843.32 318.50   A 1.36 1.12 79.4 0 1 842.86 319.33   Q 841.42 320.40 840.21 319.17   Q 839.90 318.85 839.71 318.06   Q 839.35 316.62 838.29 317.95   Q 837.85 318.50 837.42 318.76   Q 832.66 321.58 828.65 319.45   Q 825.42 317.72 823.98 313.27   Q 821.81 306.55 825.41 300.55   Q 827.81 296.56 831.29 294.65   Q 835.68 292.24 840.29 294.42   Z   M 830.70 315.57   A 3.89 3.86 -31.2 0 0 833.50 316.25   Q 836.99 315.75 838.77 313.28   Q 839.84 311.80 840.29 307.93   Q 840.74 304.02 841.43 300.34   A 1.38 1.36 16.9 0 0 840.60 298.81   Q 837.24 297.42 834.28 298.26   Q 831.50 299.05 829.65 301.91   Q 826.89 306.18 828.13 311.67   Q 828.68 314.13 830.70 315.57   Z"/>
<rect fill="#575656" x="940.75" y="292.75" width="975.00" height="26.00" rx="0.27"/>
<path fill="#575656" d="   M 586.90 318.86   Q 584.04 316.87 583.09 313.48   Q 580.74 305.17 585.97 298.46   Q 589.07 294.49 594.50 293.75   Q 597.77 293.31 600.24 294.62   Q 602.77 295.97 603.41 298.90   Q 604.09 301.98 602.13 304.40   Q 600.68 306.18 597.70 307.14   Q 592.98 308.65 587.65 308.22   A 1.08 1.08 86.0 0 0 586.51 309.53   Q 588.83 319.93 598.13 314.57   A 1.39 1.07 -48.0 0 1 599.06 314.40   Q 600.59 314.80 600.69 316.44   A 0.99 0.89 -22.2 0 1 600.30 317.24   Q 597.20 319.66 593.25 320.28   Q 589.73 320.83 586.90 318.86   Z   M 588.10 304.63   Q 591.38 305.18 595.04 304.43   Q 598.24 303.77 599.25 300.75   Q 599.96 298.62 597.69 298.06   Q 590.92 296.41 587.53 303.55   A 0.77 0.76 17.6 0 0 588.10 304.63   Z"/>
<path fill="#575656" d="   M 643.71 297.37   Q 646.18 295.42 649.08 294.34   Q 652.28 293.15 655.00 293.97   Q 660.27 295.55 660.00 302.25   Q 659.68 310.11 657.80 318.70   A 0.98 0.95 85.5 0 1 657.23 319.39   Q 652.67 321.27 653.69 316.29   Q 654.67 311.53 655.50 303.75   Q 656.17 297.45 650.00 298.00   Q 647.08 298.26 644.63 301.18   A 1.58 1.46 69.4 0 0 644.27 302.06   Q 643.55 309.75 642.27 317.36   Q 642.01 318.91 641.24 319.46   Q 640.15 320.25 638.56 319.61   A 1.47 1.46 16.3 0 1 637.66 317.97   Q 638.99 310.95 639.54 304.18   Q 639.77 301.26 639.16 300.01   Q 638.05 297.72 634.75 298.05   Q 631.90 298.34 630.05 300.12   Q 628.65 301.47 628.20 304.50   Q 627.42 309.74 626.71 315.00   Q 626.69 315.10 626.57 317.13   Q 626.34 320.90 622.21 319.49   A 0.71 0.69 -77.3 0 1 621.75 318.74   Q 623.31 307.32 624.92 296.30   Q 625.10 295.07 625.63 294.50   Q 626.67 293.40 627.96 294.58   A 1.48 1.04 -79.2 0 1 628.35 295.44   Q 628.59 297.54 630.06 296.11   Q 630.77 295.42 631.19 295.17   Q 638.12 291.02 643.01 297.28   A 0.50 0.49 51.9 0 0 643.71 297.37   Z"/>
<path fill="#575656" d="   M 729.93 296.35   Q 734.45 292.27 739.54 294.01   A 1.15 1.14 14.7 0 1 740.30 295.30   Q 739.59 299.05 737.31 298.19   Q 733.24 297.48 730.74 299.98   Q 729.34 301.38 728.97 304.49   Q 728.13 311.53 726.84 318.50   A 1.31 1.05 82.7 0 1 726.35 319.30   Q 724.73 320.40 723.09 319.35   A 0.81 0.78 -70.1 0 1 722.74 318.57   L 725.92 295.25   A 0.96 0.95 81.3 0 1 726.45 294.52   Q 729.16 293.26 729.52 296.19   Q 729.58 296.66 729.93 296.35   Z"/>
<path fill="#575656" d="   M 761.42 308.06   A 1.16 1.16 -86.3 0 0 760.08 309.24   Q 760.14 311.11 761.48 313.26   Q 764.20 317.63 768.73 315.97   Q 768.75 315.96 771.03 314.70   Q 773.68 313.23 774.35 316.45   A 0.84 0.80 -25.8 0 1 774.05 317.25   Q 769.12 321.12 763.75 320.25   Q 761.06 319.81 759.07 317.57   Q 757.54 315.84 756.75 312.95   Q 753.60 301.45 763.75 295.00   Q 766.65 293.16 770.29 293.58   Q 773.88 293.99 775.97 296.31   Q 778.45 299.06 776.77 302.68   Q 775.58 305.25 772.60 306.62   Q 767.41 309.01 761.42 308.06   Z   M 771.97 298.61   Q 770.34 296.80 768.01 297.50   Q 763.22 298.93 761.15 303.74   A 0.65 0.64 -75.3 0 0 761.67 304.64   Q 766.40 305.13 770.02 303.80   Q 771.78 303.15 772.48 302.06   Q 773.55 300.38 771.97 298.61   Z"/>
<path fill="#575656" d="   M 870.26 318.83   Q 865.63 314.98 865.50 309.25   Q 865.40 304.77 867.99 300.22   Q 871.04 294.83 877.50 293.75   Q 881.20 293.13 883.90 294.81   Q 886.23 296.26 886.77 299.11   Q 887.39 302.35 885.33 304.60   Q 883.34 306.77 879.01 307.71   Q 875.43 308.49 871.41 308.21   Q 869.21 308.06 869.89 310.15   Q 872.95 319.67 881.33 314.52   A 1.15 1.02 -49.7 0 1 882.24 314.39   Q 884.87 315.27 883.50 317.08   Q 882.91 317.86 881.69 318.56   Q 877.49 320.94 872.92 320.08   Q 871.42 319.80 870.26 318.83   Z   M 881.05 298.18   A 3.43 3.41 59.1 0 0 878.43 297.51   Q 872.53 298.43 870.88 304.01   A 0.46 0.45 -77.6 0 0 871.24 304.59   Q 875.60 305.36 879.59 303.75   Q 881.44 303.00 882.17 301.86   Q 883.38 299.96 881.05 298.18   Z"/>
<path fill="#575656" d="   M 206.66 297.32   Q 210.91 300.68 214.51 297.27   L 428.46 297.25   A 1.04 1.04 89.7 0 1 429.50 298.28   Q 429.87 359.25 429.00 420.00   L 0.00 420.00   L 0.00 297.62   Q 49.13 296.89 98.26 297.39   Q 108.25 297.49 118.25 297.39   Q 156.75 297.00 195.25 297.36   Q 201.12 297.42 206.66 297.32   Z   M 278.56 386.69   Q 273.87 380.69 271.62 371.24   A 0.85 0.81 88.5 0 0 271.01 370.63   Q 269.02 370.20 267.04 370.68   A 0.67 0.63 83.3 0 0 266.56 371.32   L 266.50 403.14   A 0.66 0.66 6.7 0 0 267.01 403.78   Q 270.78 404.63 272.42 402.70   Q 275.33 399.29 278.86 396.55   A 0.70 0.67 43.2 0 1 279.67 396.54   Q 294.69 406.78 313.00 404.02   Q 323.50 402.45 330.78 395.35   Q 333.69 392.50 335.50 389.08   Q 337.52 385.26 338.00 381.50   Q 339.53 369.48 331.76 362.48   Q 327.69 358.81 318.31 355.66   Q 310.49 353.03 303.50 352.00   Q 291.97 350.30 284.56 346.94   Q 278.67 344.27 277.36 338.34   Q 276.35 333.79 278.29 329.33   Q 280.32 324.67 284.81 322.31   Q 295.66 316.63 308.01 321.58   Q 319.46 326.18 324.67 337.39   Q 326.59 341.54 327.80 345.88   A 1.26 1.02 81.1 0 0 328.83 346.81   L 332.21 346.85   A 0.65 0.47 89.4 0 0 332.68 346.19   L 332.31 316.55   A 0.69 0.67 -83.3 0 0 331.81 315.90   Q 329.65 315.32 327.92 315.59   A 1.42 1.16 -70.2 0 0 327.12 316.07   L 321.63 322.57   A 0.55 0.52 37.5 0 1 320.91 322.65   Q 308.22 313.42 293.73 315.07   Q 282.55 316.34 275.63 322.53   Q 267.43 329.86 268.00 342.50   Q 268.35 350.18 273.51 355.23   Q 276.85 358.50 284.38 361.29   Q 290.85 363.68 296.50 364.75   Q 307.23 366.78 315.56 369.36   Q 321.46 371.19 323.89 373.14   Q 327.90 376.37 328.49 381.69   Q 328.92 385.53 327.26 389.10   Q 325.58 392.73 322.44 395.19   Q 319.15 397.76 315.03 399.06   Q 311.50 400.18 306.86 400.21   Q 289.25 400.35 278.56 386.69   Z   M 62.82 360.55   Q 69.71 360.39 71.75 360.50   Q 80.66 360.96 84.19 368.31   Q 86.04 372.18 86.41 378.06   A 0.82 0.76 -81.7 0 0 86.89 378.76   Q 88.75 379.47 90.61 378.76   A 0.79 0.70 81.3 0 0 91.06 378.06   L 91.18 339.56   A 0.68 0.64 -82.8 0 0 90.71 338.91   Q 88.79 338.36 86.91 339.00   A 0.81 0.77 82.8 0 0 86.40 339.69   Q 86.03 343.80 85.25 346.00   Q 81.85 355.62 71.49 356.07   Q 67.25 356.25 62.92 356.25   A 0.67 0.67 89.6 0 1 62.25 355.58   Q 62.25 340.50 62.27 326.00   Q 62.27 321.00 67.75 321.00   Q 77.00 321.00 86.25 320.99   Q 101.03 320.98 106.62 334.34   Q 108.78 339.51 109.90 345.01   A 0.80 0.75 89.0 0 0 110.49 345.62   Q 112.25 346.01 114.01 345.62   A 0.60 0.60 -7.9 0 0 114.48 345.00   L 112.69 317.01   A 0.55 0.54 -1.7 0 0 112.14 316.50   L 34.31 316.56   A 0.52 0.50 -0.0 0 0 33.79 317.06   L 33.74 320.14   A 0.88 0.85 0.3 0 0 34.62 321.00   Q 39.38 321.00 43.50 321.14   Q 47.44 321.27 47.75 324.50   Q 48.31 330.32 48.06 339.35   Q 47.79 349.19 47.83 354.17   Q 48.00 374.08 47.64 394.00   Q 47.58 397.28 44.75 398.00   Q 41.85 398.74 37.40 398.57   Q 34.79 398.47 34.62 398.56   Q 33.39 399.15 34.09 402.25   A 0.96 0.95 83.5 0 0 35.02 403.00   L 115.18 402.94   A 0.55 0.53 1.7 0 0 115.73 402.44   L 117.42 371.31   A 0.49 0.48 -88.3 0 0 116.94 370.79   L 113.22 370.76   A 0.61 0.59 -84.4 0 0 112.62 371.27   Q 111.60 377.36 109.46 382.34   Q 102.70 398.07 85.25 398.36   Q 77.71 398.49 70.17 398.50   Q 70.08 398.50 68.34 398.57   Q 65.62 398.69 63.80 397.47   Q 62.25 396.44 62.25 394.59   L 62.31 361.06   A 0.52 0.51 -0.6 0 1 62.82 360.55   Z   M 190.98 383.98   L 161.94 317.57   A 1.68 1.66 78.1 0 0 160.41 316.56   Q 146.17 316.46 131.19 316.50   Q 131.07 316.50 129.83 316.39   Q 127.67 316.21 128.25 318.75   A 2.61 1.05 78.2 0 0 129.75 321.00   Q 135.55 320.33 141.22 321.63   Q 143.90 322.24 144.00 325.75   Q 144.28 335.25 144.19 344.75   Q 144.00 365.88 144.00 387.00   Q 144.00 390.75 141.97 393.56   Q 140.25 395.95 136.61 397.14   Q 132.96 398.33 129.06 398.54   A 0.69 0.46 -3.1 0 0 128.40 399.03   L 128.48 402.30   A 0.84 0.72 -0.7 0 0 129.32 403.00   L 164.88 403.00   A 0.78 0.76 0.4 0 0 165.66 402.25   L 165.72 399.07   A 0.56 0.52 2.2 0 0 165.19 398.54   Q 161.79 398.35 158.50 397.49   Q 152.98 396.04 150.90 391.56   Q 149.77 389.15 149.67 382.76   Q 149.22 353.25 149.69 323.33   Q 149.73 321.30 150.53 323.16   L 184.87 402.49   A 0.83 0.64 74.3 0 0 185.55 403.00   L 189.21 402.80   A 0.92 0.67 -77.0 0 0 189.88 402.22   L 221.89 322.39   Q 222.25 321.51 222.25 322.46   Q 222.45 356.49 222.50 390.73   Q 222.50 390.81 222.60 392.76   Q 222.88 397.81 217.56 398.26   Q 213.04 398.64 207.88 398.48   A 0.87 0.76 1.8 0 0 206.98 399.22   L 206.89 402.46   A 0.67 0.47 0.4 0 0 207.56 402.94   L 251.82 403.00   A 0.62 0.57 0.0 0 0 252.44 402.43   L 252.40 399.18   A 0.64 0.53 2.9 0 0 251.81 398.64   Q 247.52 398.25 245.50 398.50   Q 241.34 399.02 238.16 397.14   A 2.86 2.85 15.3 0 1 236.75 394.68   Q 236.75 360.74 236.75 327.47   Q 236.75 327.33 236.68 326.04   Q 236.54 323.27 238.44 322.03   Q 239.59 321.29 242.72 321.13   Q 247.25 320.91 251.98 320.80   A 0.53 0.52 -0.6 0 0 252.50 320.28   L 252.50 317.06   A 0.56 0.56 0.0 0 0 251.94 316.50   L 219.07 316.50   A 0.77 0.76 10.7 0 0 218.36 316.98   L 191.37 383.98   Q 191.19 384.44 190.98 383.98   Z   M 361.94 321.12   Q 367.25 321.24 367.25 326.50   Q 367.25 358.38 367.22 390.25   Q 367.21 393.39 366.51 396.15   Q 365.99 398.21 364.02 398.25   L 352.71 398.47   A 1.17 0.95 0.9 0 0 351.58 399.36   L 351.38 402.47   A 0.67 0.44 1.1 0 0 352.06 402.94   L 396.37 403.00   A 0.60 0.59 0.0 0 0 396.97 402.41   L 396.97 399.07   A 0.54 0.52 0.6 0 0 396.44 398.55   Q 392.47 398.47 388.51 398.73   Q 384.93 398.96 383.01 397.60   Q 381.25 396.37 381.25 394.22   L 381.25 325.26   Q 381.25 322.61 383.69 321.59   Q 385.65 320.78 389.00 320.95   Q 392.35 321.12 396.45 320.74   A 0.58 0.57 -2.8 0 0 396.98 320.17   L 396.97 317.06   A 0.53 0.50 -0.0 0 0 396.44 316.56   L 352.08 316.50   A 0.63 0.55 0.5 0 0 351.45 317.04   L 351.40 320.46   A 0.67 0.48 0.0 0 0 352.07 320.94   Q 357.00 321.01 361.94 321.12   Z"/>
<path fill="#ffffff" d="   M 278.56 386.69   Q 289.25 400.35 306.86 400.21   Q 311.50 400.18 315.03 399.06   Q 319.15 397.76 322.44 395.19   Q 325.58 392.73 327.26 389.10   Q 328.92 385.53 328.49 381.69   Q 327.90 376.37 323.89 373.14   Q 321.46 371.19 315.56 369.36   Q 307.23 366.78 296.50 364.75   Q 290.85 363.68 284.38 361.29   Q 276.85 358.50 273.51 355.23   Q 268.35 350.18 268.00 342.50   Q 267.43 329.86 275.63 322.53   Q 282.55 316.34 293.73 315.07   Q 308.22 313.42 320.91 322.65   A 0.55 0.52 37.5 0 0 321.63 322.57   L 327.12 316.07   A 1.42 1.16 -70.2 0 1 327.92 315.59   Q 329.65 315.32 331.81 315.90   A 0.69 0.67 -83.3 0 1 332.31 316.55   L 332.68 346.19   A 0.65 0.47 89.4 0 1 332.21 346.85   L 328.83 346.81   A 1.26 1.02 81.1 0 1 327.80 345.88   Q 326.59 341.54 324.67 337.39   Q 319.46 326.18 308.01 321.58   Q 295.66 316.63 284.81 322.31   Q 280.32 324.67 278.29 329.33   Q 276.35 333.79 277.36 338.34   Q 278.67 344.27 284.56 346.94   Q 291.97 350.30 303.50 352.00   Q 310.49 353.03 318.31 355.66   Q 327.69 358.81 331.76 362.48   Q 339.53 369.48 338.00 381.50   Q 337.52 385.26 335.50 389.08   Q 333.69 392.50 330.78 395.35   Q 323.50 402.45 313.00 404.02   Q 294.69 406.78 279.67 396.54   A 0.70 0.67 43.2 0 0 278.86 396.55   Q 275.33 399.29 272.42 402.70   Q 270.78 404.63 267.01 403.78   A 0.66 0.66 6.7 0 1 266.50 403.14   L 266.56 371.32   A 0.67 0.63 83.3 0 1 267.04 370.68   Q 269.02 370.20 271.01 370.63   A 0.85 0.81 88.5 0 1 271.62 371.24   Q 273.87 380.69 278.56 386.69   Z"/>
<path fill="#ffffff" d="   M 62.31 361.06   L 62.25 394.59   Q 62.25 396.44 63.80 397.47   Q 65.62 398.69 68.34 398.57   Q 70.08 398.50 70.17 398.50   Q 77.71 398.49 85.25 398.36   Q 102.70 398.07 109.46 382.34   Q 111.60 377.36 112.62 371.27   A 0.61 0.59 -84.4 0 1 113.22 370.76   L 116.94 370.79   A 0.49 0.48 -88.3 0 1 117.42 371.31   L 115.73 402.44   A 0.55 0.53 1.7 0 1 115.18 402.94   L 35.02 403.00   A 0.96 0.95 83.5 0 1 34.09 402.25   Q 33.39 399.15 34.62 398.56   Q 34.79 398.47 37.40 398.57   Q 41.85 398.74 44.75 398.00   Q 47.58 397.28 47.64 394.00   Q 48.00 374.08 47.83 354.17   Q 47.79 349.19 48.06 339.35   Q 48.31 330.32 47.75 324.50   Q 47.44 321.27 43.50 321.14   Q 39.38 321.00 34.62 321.00   A 0.88 0.85 0.3 0 1 33.74 320.14   L 33.79 317.06   A 0.52 0.50 0.0 0 1 34.31 316.56   L 112.14 316.50   A 0.55 0.54 -1.7 0 1 112.69 317.01   L 114.48 345.00   A 0.60 0.60 -7.9 0 1 114.01 345.62   Q 112.25 346.01 110.49 345.62   A 0.80 0.75 89.0 0 1 109.90 345.01   Q 108.78 339.51 106.62 334.34   Q 101.03 320.98 86.25 320.99   Q 77.00 321.00 67.75 321.00   Q 62.27 321.00 62.27 326.00   Q 62.25 340.50 62.25 355.58   A 0.67 0.67 -89.8 0 0 62.92 356.25   Q 67.25 356.25 71.49 356.07   Q 81.85 355.62 85.25 346.00   Q 86.03 343.80 86.40 339.69   A 0.81 0.77 82.8 0 1 86.91 339.00   Q 88.79 338.36 90.71 338.91   A 0.68 0.64 -82.8 0 1 91.18 339.56   L 91.06 378.06   A 0.79 0.70 81.3 0 1 90.61 378.76   Q 88.75 379.47 86.89 378.76   A 0.82 0.76 -81.7 0 1 86.41 378.06   Q 86.04 372.18 84.19 368.31   Q 80.66 360.96 71.75 360.50   Q 69.71 360.39 62.82 360.55   A 0.52 0.51 -0.6 0 0 62.31 361.06   Z"/>
<path fill="#ffffff" d="   M 191.37 383.98   L 218.36 316.98   A 0.77 0.76 10.7 0 1 219.07 316.50   L 251.94 316.50   A 0.56 0.56 0.0 0 1 252.50 317.06   L 252.50 320.28   A 0.53 0.52 -0.6 0 1 251.98 320.80   Q 247.25 320.91 242.72 321.13   Q 239.59 321.29 238.44 322.03   Q 236.54 323.27 236.68 326.04   Q 236.75 327.33 236.75 327.47   Q 236.75 360.74 236.75 394.68   A 2.86 2.85 15.3 0 0 238.16 397.14   Q 241.34 399.02 245.50 398.50   Q 247.52 398.25 251.81 398.64   A 0.64 0.53 2.9 0 1 252.40 399.18   L 252.44 402.43   A 0.62 0.57 0.0 0 1 251.82 403.00   L 207.56 402.94   A 0.67 0.47 0.4 0 1 206.89 402.46   L 206.98 399.22   A 0.87 0.76 1.8 0 1 207.88 398.48   Q 213.04 398.64 217.56 398.26   Q 222.88 397.81 222.60 392.76   Q 222.50 390.81 222.50 390.73   Q 222.45 356.49 222.25 322.46   Q 222.25 321.51 221.89 322.39   L 189.88 402.22   A 0.92 0.67 -77.0 0 1 189.21 402.80   L 185.55 403.00   A 0.83 0.64 74.3 0 1 184.87 402.49   L 150.53 323.16   Q 149.73 321.30 149.69 323.33   Q 149.22 353.25 149.67 382.76   Q 149.77 389.15 150.90 391.56   Q 152.98 396.04 158.50 397.49   Q 161.79 398.35 165.19 398.54   A 0.56 0.52 2.2 0 1 165.72 399.07   L 165.66 402.25   A 0.78 0.76 0.4 0 1 164.88 403.00   L 129.32 403.00   A 0.84 0.72 -0.7 0 1 128.48 402.30   L 128.40 399.03   A 0.69 0.46 -3.1 0 1 129.06 398.54   Q 132.96 398.33 136.61 397.14   Q 140.25 395.95 141.97 393.56   Q 144.00 390.75 144.00 387.00   Q 144.00 365.88 144.19 344.75   Q 144.28 335.25 144.00 325.75   Q 143.90 322.24 141.22 321.63   Q 135.55 320.33 129.75 321.00   A 2.61 1.05 78.2 0 1 128.25 318.75   Q 127.67 316.21 129.83 316.39   Q 131.07 316.50 131.19 316.50   Q 146.17 316.46 160.41 316.56   A 1.68 1.66 78.1 0 1 161.94 317.57   L 190.98 383.98   Q 191.19 384.44 191.37 383.98   Z"/>
<path fill="#ffffff" d="   M 361.94 321.12   Q 357.00 321.01 352.07 320.94   A 0.67 0.48 0.0 0 1 351.40 320.46   L 351.45 317.04   A 0.63 0.55 0.5 0 1 352.08 316.50   L 396.44 316.56   A 0.53 0.50 -0.0 0 1 396.97 317.06   L 396.98 320.17   A 0.58 0.57 -2.8 0 1 396.45 320.74   Q 392.35 321.12 389.00 320.95   Q 385.65 320.78 383.69 321.59   Q 381.25 322.61 381.25 325.26   L 381.25 394.22   Q 381.25 396.37 383.01 397.60   Q 384.93 398.96 388.51 398.73   Q 392.47 398.47 396.44 398.55   A 0.54 0.52 0.6 0 1 396.97 399.07   L 396.97 402.41   A 0.60 0.59 -0.0 0 1 396.37 403.00   L 352.06 402.94   A 0.67 0.44 1.1 0 1 351.38 402.47   L 351.58 399.36   A 1.17 0.95 0.9 0 1 352.71 398.47   L 364.02 398.25   Q 365.99 398.21 366.51 396.15   Q 367.21 393.39 367.22 390.25   Q 367.25 358.38 367.25 326.50   Q 367.25 321.24 361.94 321.12   Z"/>
<path fill="#575656" d="   M 617.17 395.36   A 24.49 24.49 0.0 0 1 592.68 419.85   A 24.49 24.49 0.0 0 1 568.19 395.36   A 24.49 24.49 0.0 0 1 592.68 370.87   A 24.49 24.49 0.0 0 1 617.17 395.36   Z   M 608.26 395.36   A 15.58 15.58 0.0 0 0 592.68 379.78   A 15.58 15.58 0.0 0 0 577.10 395.36   A 15.58 15.58 0.0 0 0 592.68 410.94   A 15.58 15.58 0.0 0 0 608.26 395.36   Z"/>
<path fill="#575656" d="   M 732.45 395.37   A 24.49 24.49 0.0 0 1 707.96 419.86   A 24.49 24.49 0.0 0 1 683.47 395.37   A 24.49 24.49 0.0 0 1 707.96 370.88   A 24.49 24.49 0.0 0 1 732.45 395.37   Z   M 723.55 395.36   A 15.58 15.58 0.0 0 0 707.97 379.78   A 15.58 15.58 0.0 0 0 692.39 395.36   A 15.58 15.58 0.0 0 0 707.97 410.94   A 15.58 15.58 0.0 0 0 723.55 395.36   Z"/>
<path fill="#575656" d="   M 855.88 391.43   Q 851.66 385.98 854.31 379.41   Q 855.81 375.69 858.93 373.60   Q 862.14 371.45 866.25 371.04   Q 875.32 370.13 883.44 375.61   A 1.25 1.25 29.7 0 1 883.87 377.17   Q 882.52 380.02 880.63 381.68   A 0.93 0.88 32.2 0 1 879.77 381.85   Q 875.33 380.41 870.94 378.81   Q 868.88 378.07 866.51 378.72   Q 864.20 379.36 862.99 381.02   Q 860.90 383.89 864.06 387.19   Q 865.29 388.47 867.56 389.62   Q 868.31 390.00 871.53 391.15   Q 876.66 392.98 880.68 396.51   Q 884.39 399.76 885.35 403.50   Q 886.52 408.11 883.94 412.44   Q 881.32 416.81 876.53 418.64   Q 872.56 420.16 867.34 419.74   Q 859.05 419.07 852.30 413.68   A 1.45 1.30 35.8 0 1 851.91 411.88   L 854.59 407.61   Q 855.68 405.87 857.62 407.32   Q 862.41 410.93 867.92 411.60   Q 871.58 412.05 873.78 410.41   Q 877.00 408.00 874.56 403.19   Q 873.79 401.66 869.36 400.00   Q 865.54 398.57 862.06 396.51   Q 857.92 394.06 855.88 391.43   Z"/>
<path fill="#575656" d="   M 1681.87 376.59   Q 1682.12 381.04 1681.90 385.49   Q 1681.76 388.24 1680.71 386.18   Q 1680.52 385.81 1680.41 385.28   Q 1678.37 374.65 1668.16 373.81   Q 1665.35 373.58 1663.50 374.62   Q 1661.29 375.85 1660.15 378.35   Q 1658.56 381.85 1661.06 384.70   Q 1663.01 386.92 1665.61 388.36   Q 1678.02 395.21 1680.44 397.31   Q 1686.01 402.15 1685.00 408.75   Q 1684.11 414.58 1678.09 417.75   Q 1671.70 421.12 1664.68 419.09   Q 1661.56 418.19 1658.44 417.31   Q 1656.29 416.70 1655.81 418.81   Q 1655.65 419.54 1655.06 419.67   A 0.48 0.41 84.3 0 1 1654.56 419.19   Q 1654.46 411.93 1654.50 404.67   Q 1654.50 404.15 1654.73 403.90   Q 1655.10 403.49 1655.53 403.96   Q 1655.74 404.18 1655.81 404.60   Q 1658.04 417.20 1669.89 416.97   Q 1673.45 416.90 1675.97 414.89   Q 1680.92 410.95 1677.67 405.94   Q 1676.00 403.35 1670.79 400.26   Q 1662.19 395.15 1659.81 393.44   Q 1651.61 387.52 1654.81 379.13   Q 1656.07 375.83 1658.76 373.68   Q 1661.81 371.25 1665.25 371.00   Q 1671.62 370.53 1677.31 373.44   Q 1679.04 374.32 1680.44 371.94   Q 1681.99 369.28 1682.09 372.50   Q 1682.13 373.54 1681.99 374.55   Q 1681.83 375.76 1681.87 376.59   Z"/>
<path fill="#575656" d="   M 1920.00 406.31   L 1920.00 407.56   Q 1918.58 415.51 1912.11 418.44   Q 1908.36 420.14 1903.19 419.68   Q 1898.61 419.27 1894.25 417.50   Q 1891.38 416.34 1891.06 418.06   Q 1890.85 419.22 1889.94 420.00   L 1889.68 420.00   Q 1888.91 412.65 1889.25 405.25   Q 1889.37 402.72 1890.47 404.30   Q 1890.73 404.68 1890.84 405.26   Q 1893.15 417.91 1906.25 417.00   Q 1909.61 416.77 1911.70 414.40   Q 1913.66 412.18 1913.51 409.15   Q 1913.29 404.62 1908.56 401.94   Q 1896.37 395.01 1893.69 392.81   Q 1888.71 388.73 1888.83 383.19   Q 1888.93 378.13 1892.93 374.42   Q 1898.52 369.25 1907.26 371.87   Q 1910.24 372.76 1912.48 373.31   A 2.02 2.02 -66.0 0 0 1914.64 372.48   Q 1916.18 370.23 1916.76 371.23   Q 1917.02 371.68 1916.95 372.80   Q 1916.60 378.39 1916.81 384.00   Q 1917.02 389.74 1915.24 385.36   Q 1915.03 384.85 1914.86 384.12   Q 1912.65 374.52 1903.25 373.79   Q 1900.42 373.57 1898.40 374.56   Q 1895.84 375.81 1894.81 378.31   Q 1892.87 383.03 1897.48 386.25   Q 1903.97 390.77 1912.44 395.31   Q 1918.94 398.80 1920.00 406.31   Z"/>
<path fill="#575656" d="   M 639.79 390.56   L 639.52 418.19   A 1.28 1.21 -90.0 0 1 638.32 419.46   L 632.75 419.50   Q 630.82 419.51 630.81 417.54   Q 630.71 397.88 630.75 378.31   Q 630.75 378.21 630.71 376.20   Q 630.56 367.23 636.59 373.93   Q 648.13 386.75 659.79 399.68   Q 660.82 400.82 660.82 399.28   L 660.75 373.23   A 1.84 1.55 90.0 0 1 662.30 371.39   L 668.89 371.37   A 0.92 0.86 -90.0 0 1 669.75 372.29   L 669.69 418.19   A 1.19 1.05 71.6 0 1 669.33 419.04   Q 667.57 420.54 665.76 418.49   Q 653.18 404.26 640.16 390.43   Q 639.80 390.05 639.79 390.56   Z"/>
<path fill="#575656" d="   M 544.95 399.31   L 526.91 399.25   A 0.66 0.66 -90.0 0 0 526.25 399.91   L 526.25 418.07   A 1.43 1.43 -89.7 0 1 524.82 419.50   L 518.65 419.50   A 1.40 1.40 0.0 0 1 517.25 418.10   L 517.31 372.42   A 1.17 1.17 -0.1 0 1 518.48 371.25   L 524.57 371.25   A 1.68 1.68 -89.7 0 1 526.25 372.93   L 526.25 390.24   A 0.51 0.51 0.0 0 0 526.76 390.75   L 545.00 390.75   A 0.75 0.75 0.0 0 0 545.75 390.00   L 545.75 372.59   A 1.33 1.30 -89.8 0 1 547.06 371.26   L 553.31 371.31   A 1.22 1.20 -89.8 0 1 554.50 372.53   L 554.32 418.57   A 0.64 0.62 -6.4 0 1 553.82 419.18   Q 550.13 420.04 546.43 419.18   A 0.66 0.64 -84.5 0 1 545.93 418.55   L 545.46 399.81   A 0.52 0.51 88.8 0 0 544.95 399.31   Z"/>
<path fill="#575656" d="   M 755.06 401.31   L 755.00 418.27   A 1.18 1.14 89.8 0 1 753.87 419.45   L 747.85 419.49   A 1.62 1.58 89.7 0 1 746.25 417.87   L 746.25 372.65   A 1.40 1.40 0.0 0 1 747.65 371.25   Q 756.00 371.25 764.15 371.25   Q 772.69 371.25 775.71 372.44   Q 779.82 374.06 782.35 377.83   Q 784.63 381.22 784.76 385.60   Q 785.03 395.26 775.52 399.85   A 0.48 0.47 -27.3 0 0 775.30 400.51   L 784.47 416.61   Q 786.11 419.50 782.85 419.50   L 776.90 419.50   A 1.69 1.67 -13.7 0 1 775.41 418.61   L 766.21 401.36   A 1.14 1.11 75.7 0 0 765.22 400.75   L 755.57 400.80   A 0.52 0.51 -0.6 0 0 755.06 401.31   Z   M 773.11 380.88   Q 771.67 379.72 770.03 379.70   L 755.86 379.52   A 0.87 0.85 -89.7 0 0 755.00 380.39   L 755.00 392.57   A 0.68 0.68 -2.0 0 0 755.73 393.25   Q 761.62 392.86 767.49 393.16   Q 775.26 393.55 775.94 386.68   Q 776.13 384.74 775.40 383.44   Q 774.64 382.11 773.11 380.88   Z"/>
<path fill="#575656" d="   M 823.06 379.32   L 823.00 411.18   A 0.66 0.65 -0.4 0 0 823.67 411.83   L 835.10 411.76   A 1.57 1.41 0.3 0 1 836.68 413.20   L 836.52 418.86   A 0.75 0.65 0.4 0 1 835.77 419.50   L 801.23 419.50   A 1.18 1.15 -0.2 0 1 800.05 418.36   L 800.00 412.76   A 0.75 0.75 -1.2 0 1 800.73 412.00   L 813.23 411.76   A 0.53 0.51 -0.6 0 0 813.75 411.25   L 813.75 379.41   A 0.66 0.66 90.0 0 0 813.09 378.75   L 804.05 378.75   A 1.30 1.30 89.7 0 1 802.75 377.45   L 802.75 372.04   A 0.77 0.76 -89.6 0 1 803.52 371.27   L 832.99 371.48   A 0.69 0.67 -6.7 0 1 833.64 371.98   Q 834.47 374.94 833.80 377.95   A 0.67 0.65 -84.8 0 1 833.19 378.48   L 823.56 378.82   A 0.52 0.50 -1.2 0 0 823.06 379.32   Z"/>
<path fill="#575656" d="   M 962.44 420.00   L 961.19 420.00   Q 949.43 420.16 945.39 411.74   Q 943.50 407.80 943.35 397.48   Q 943.23 389.49 943.25 378.50   Q 943.26 372.89 937.67 373.22   Q 937.14 373.25 936.84 373.12   Q 936.19 372.83 936.63 372.33   A 1.27 0.88 14.0 0 1 937.50 372.00   L 955.94 372.06   A 0.68 0.54 -2.8 0 1 956.60 372.53   Q 956.71 373.38 955.00 373.25   Q 950.56 372.90 950.29 377.50   Q 949.22 395.80 950.75 408.50   Q 951.11 411.52 953.51 413.75   Q 955.42 415.53 958.54 416.31   Q 968.01 418.69 974.69 410.94   Q 976.06 409.35 976.20 404.43   Q 976.56 391.52 976.46 378.60   Q 976.43 375.90 975.53 374.76   Q 974.12 372.98 971.26 373.34   Q 969.58 373.55 969.87 372.52   A 0.74 0.64 6.6 0 1 970.56 372.05   L 985.68 372.05   A 0.91 0.54 -4.8 0 1 986.49 372.44   Q 986.57 372.65 986.45 372.87   A 0.80 0.55 10.3 0 1 985.79 373.17   Q 979.63 373.07 979.74 379.50   Q 979.93 391.38 979.48 403.25   Q 978.86 419.47 962.44 420.00   Z"/>
<path fill="#575656" d="   M 1013.02 416.89   Q 1014.10 417.52 1016.49 417.51   A 1.79 1.14 -17.5 0 1 1017.42 417.76   Q 1018.46 418.49 1016.49 418.55   Q 1009.25 418.77 1002.00 418.75   A 0.95 0.76 -11.0 0 1 1001.21 418.34   Q 1000.77 417.50 1002.25 417.52   Q 1008.17 417.58 1007.87 412.13   Q 1007.75 409.96 1007.75 409.85   Q 1007.75 394.78 1007.75 379.06   A 3.48 3.46 -67.3 0 0 1006.76 376.63   Q 1003.84 373.66 999.49 373.06   A 1.43 0.85 -5.4 0 1 998.64 372.66   Q 998.17 372.06 999.50 372.04   Q 1005.22 371.96 1010.94 372.05   A 1.08 1.06 -18.6 0 1 1011.75 372.44   L 1039.21 406.09   Q 1040.00 407.06 1040.00 405.81   Q 1040.00 392.12 1040.00 378.75   Q 1040.00 372.68 1034.25 373.19   A 1.06 0.79 -17.3 0 1 1033.40 372.89   Q 1032.71 372.06 1034.25 372.00   Q 1036.94 371.89 1048.93 372.05   A 0.85 0.66 -7.1 0 1 1049.67 372.49   Q 1050.01 373.37 1048.50 373.29   Q 1044.23 373.06 1043.41 376.24   Q 1043.25 376.88 1043.25 381.27   Q 1043.25 400.01 1043.25 418.77   Q 1043.25 420.33 1041.96 419.45   Q 1040.83 418.68 1039.71 417.27   Q 1025.71 399.80 1011.69 382.74   Q 1011.00 381.89 1011.00 382.98   L 1011.00 413.38   Q 1011.00 415.71 1013.02 416.89   Z"/>
<path fill="#575656" d="   M 1067.68 373.36   Q 1066.72 373.20 1065.75 373.16   Q 1064.55 373.11 1064.95 372.40   A 0.98 0.74 10.7 0 1 1065.75 372.00   Q 1074.92 372.00 1084.09 372.00   Q 1084.60 372.00 1084.85 372.23   Q 1085.21 372.55 1084.89 372.93   A 1.18 0.71 14.8 0 1 1084.00 373.19   Q 1081.84 373.00 1080.20 374.07   Q 1078.77 375.01 1078.51 377.15   Q 1078.25 379.36 1078.25 382.50   Q 1078.25 394.88 1078.25 407.25   Q 1078.25 412.35 1078.72 415.20   A 1.30 1.27 -77.2 0 0 1079.21 416.00   Q 1081.33 417.58 1084.00 417.52   A 1.69 1.06 -17.6 0 1 1084.92 417.76   Q 1085.96 418.49 1083.99 418.54   Q 1074.83 418.77 1065.65 418.75   Q 1065.15 418.75 1064.92 418.54   Q 1064.63 418.29 1064.77 417.96   A 0.88 0.60 8.8 0 1 1065.55 417.59   Q 1071.92 417.77 1071.62 411.70   Q 1071.50 409.38 1071.50 409.28   Q 1071.50 393.52 1071.47 377.75   Q 1071.47 373.97 1067.68 373.36   Z"/>
<path fill="#575656" d="   M 1124.06 375.57   Q 1123.95 391.91 1123.95 408.25   Q 1123.95 411.62 1124.48 414.94   A 1.48 1.29 -76.6 0 0 1124.92 415.78   Q 1127.03 417.75 1130.01 417.76   A 0.72 0.58 -4.9 0 1 1130.69 418.22   Q 1130.86 418.98 1129.69 418.94   Q 1122.22 418.64 1110.99 418.81   A 0.18 0.18 88.3 0 1 1110.81 418.64   Q 1110.74 417.61 1111.70 417.66   Q 1112.77 417.71 1112.82 417.70   Q 1114.85 417.45 1116.16 416.12   Q 1117.19 415.07 1117.19 412.92   Q 1117.25 394.30 1117.31 375.69   A 0.59 0.57 -85.4 0 0 1116.83 375.11   Q 1111.44 374.23 1108.00 375.25   Q 1103.49 376.59 1102.75 381.75   Q 1102.41 384.12 1101.51 382.71   Q 1101.25 382.30 1101.27 381.73   Q 1101.41 377.14 1101.77 372.55   A 0.54 0.53 2.3 0 1 1102.31 372.06   L 1139.43 372.06   A 0.55 0.52 -1.7 0 1 1139.98 372.55   L 1140.43 382.19   A 0.69 0.61 81.6 0 1 1139.98 382.88   Q 1139.09 383.13 1138.95 381.81   Q 1138.66 378.96 1136.88 377.08   Q 1135.42 375.53 1132.51 375.12   Q 1128.56 374.57 1124.56 375.00   A 0.57 0.57 86.6 0 0 1124.06 375.57   Z"/>
<path fill="#575656" d="   M 1161.94 416.19   Q 1162.96 413.70 1162.93 411.00   Q 1162.75 395.00 1162.75 379.00   Q 1162.75 372.68 1157.00 373.19   A 1.17 0.59 -12.5 0 1 1156.09 372.96   Q 1155.89 372.73 1156.03 372.44   A 0.87 0.62 8.2 0 1 1156.77 372.06   L 1191.08 372.00   A 1.50 1.43 89.4 0 1 1192.51 373.47   L 1192.65 381.44   A 0.75 0.61 82.3 0 1 1192.22 382.14   Q 1191.14 382.49 1191.00 381.00   Q 1190.71 377.83 1188.69 376.06   Q 1187.20 374.76 1183.94 374.60   Q 1177.07 374.28 1170.19 374.66   A 0.56 0.53 -1.7 0 0 1169.66 375.19   L 1169.66 392.32   A 0.56 0.53 2.3 0 0 1170.18 392.85   Q 1174.32 393.16 1178.46 392.98   Q 1182.84 392.78 1183.63 392.55   Q 1186.74 391.64 1186.94 387.69   Q 1187.02 386.11 1187.83 386.48   A 0.90 0.76 -80.5 0 1 1188.29 387.25   L 1188.34 401.81   A 0.66 0.55 87.1 0 1 1187.85 402.47   Q 1187.58 402.50 1187.34 402.34   A 1.15 0.63 -85.8 0 1 1186.97 401.52   Q 1186.51 395.46 1180.00 395.50   Q 1172.71 395.54 1170.18 395.66   A 0.54 0.53 -1.1 0 0 1169.66 396.19   L 1169.70 413.95   Q 1169.71 416.28 1172.08 416.24   L 1185.52 416.00   Q 1187.55 415.96 1189.32 414.48   Q 1192.25 412.03 1194.23 408.34   Q 1194.46 407.90 1194.75 407.61   Q 1196.48 405.88 1195.60 408.66   Q 1194.03 413.55 1192.57 418.04   A 1.05 1.05 9.2 0 1 1191.57 418.76   Q 1174.11 418.62 1157.46 418.93   Q 1157.04 418.94 1156.69 418.78   Q 1155.01 418.01 1157.25 417.75   Q 1161.50 417.26 1161.94 416.19   Z"/>
<path fill="#575656" d="   M 1214.69 373.31   Q 1214.22 373.20 1212.76 373.23   A 1.25 0.92 -17.0 0 1 1211.88 372.92   Q 1211.00 371.99 1213.00 372.00   Q 1224.00 372.00 1235.00 372.00   Q 1236.82 372.00 1240.52 372.61   Q 1253.65 374.75 1257.44 387.48   Q 1261.43 400.87 1253.44 410.69   Q 1247.94 417.44 1237.75 418.50   Q 1233.70 418.92 1213.06 418.81   Q 1211.48 418.81 1211.77 417.94   A 0.75 0.57 9.1 0 1 1212.50 417.55   Q 1215.79 417.82 1217.19 415.61   Q 1217.98 414.37 1218.07 411.22   Q 1218.68 391.26 1218.00 377.00   Q 1217.86 374.09 1214.69 373.31   Z   M 1225.42 415.56   Q 1239.64 418.95 1246.87 408.70   Q 1249.51 404.96 1250.37 400.20   Q 1251.23 395.46 1250.41 390.80   Q 1249.14 383.59 1244.15 379.06   Q 1236.81 372.41 1225.48 375.44   A 0.98 0.98 82.8 0 0 1224.75 376.39   L 1224.75 414.71   A 0.87 0.87 -83.3 0 0 1225.42 415.56   Z"/>
<path fill="#575656" d="   M 1311.69 373.06   Q 1308.11 372.80 1310.88 372.09   Q 1311.23 372.00 1311.64 372.00   Q 1320.41 371.96 1329.18 372.06   A 0.93 0.68 -8.8 0 1 1329.97 372.47   Q 1330.28 373.15 1329.00 373.14   Q 1324.43 373.10 1323.48 376.48   Q 1323.34 376.96 1323.08 382.03   Q 1322.49 393.60 1323.58 405.12   Q 1324.07 410.23 1325.59 412.55   Q 1328.01 416.27 1332.75 416.75   Q 1346.15 418.12 1349.00 407.87   Q 1349.81 404.94 1349.81 393.07   Q 1349.80 385.63 1349.57 378.19   Q 1349.49 375.69 1348.52 374.58   Q 1347.09 372.92 1344.50 373.25   Q 1342.90 373.45 1343.13 372.52   A 0.72 0.60 5.5 0 1 1343.81 372.06   Q 1350.91 371.95 1358.00 372.00   Q 1359.40 372.01 1359.35 372.71   A 0.70 0.52 0.6 0 1 1358.69 373.19   Q 1352.52 373.34 1353.00 380.25   Q 1353.49 387.32 1352.83 400.60   Q 1352.43 408.63 1350.58 412.06   Q 1346.85 419.00 1337.50 419.75   Q 1335.00 419.95 1331.69 419.71   Q 1328.24 419.46 1326.04 418.63   Q 1318.71 415.85 1317.00 407.50   Q 1316.29 404.05 1316.43 398.00   Q 1316.65 388.20 1316.32 378.41   Q 1316.24 375.93 1315.37 374.83   Q 1314.11 373.23 1311.69 373.06   Z"/>
<path fill="#575656" d="   M 1384.06 382.81   Q 1384.09 397.22 1384.23 412.05   Q 1384.26 414.70 1385.03 415.78   Q 1386.27 417.51 1389.00 417.42   Q 1391.62 417.34 1390.32 418.60   A 1.39 1.05 17.3 0 1 1389.43 418.92   L 1375.50 418.74   A 1.30 0.91 -14.8 0 1 1374.63 418.42   Q 1373.77 417.48 1376.00 417.54   Q 1377.92 417.59 1379.29 416.59   Q 1380.48 415.72 1380.71 413.83   Q 1380.99 411.58 1381.00 408.00   Q 1381.03 393.66 1381.06 379.55   Q 1381.06 377.93 1379.92 376.79   Q 1376.53 373.42 1372.56 373.20   A 0.91 0.63 -4.7 0 1 1371.80 372.76   Q 1371.59 372.21 1372.51 372.18   Q 1377.63 372.00 1383.86 372.00   A 1.43 1.39 -18.7 0 1 1384.97 372.53   L 1412.81 406.69   Q 1413.47 407.49 1413.44 406.44   Q 1413.11 394.85 1413.25 383.25   Q 1413.30 379.25 1412.75 376.58   Q 1412.35 374.64 1410.96 373.93   Q 1409.57 373.22 1407.56 373.19   Q 1406.20 373.17 1406.68 372.40   A 1.01 0.83 13.0 0 1 1407.49 372.00   Q 1414.70 372.00 1421.91 372.00   Q 1422.28 372.00 1422.57 372.13   Q 1423.61 372.62 1422.35 372.93   Q 1422.08 372.99 1421.65 373.00   Q 1416.25 373.12 1416.25 379.00   Q 1416.25 398.50 1416.25 418.16   Q 1416.25 421.05 1414.42 418.81   L 1384.67 382.59   Q 1384.06 381.86 1384.06 382.81   Z"/>
<path fill="#575656" d="   M 1443.44 416.44   Q 1444.93 413.83 1444.81 410.83   Q 1444.75 409.22 1444.75 409.16   Q 1444.75 394.31 1444.75 379.46   Q 1444.75 376.46 1443.90 375.21   Q 1442.52 373.19 1439.44 373.25   Q 1437.52 373.29 1438.17 372.37   A 1.08 0.87 14.3 0 1 1438.99 372.00   L 1457.18 372.06   A 0.69 0.55 -3.3 0 1 1457.85 372.53   Q 1458.00 373.43 1456.25 373.25   Q 1453.36 372.95 1452.15 375.10   Q 1451.52 376.24 1451.44 379.02   Q 1451.08 392.88 1451.25 406.75   Q 1451.32 412.51 1451.94 415.21   A 1.45 1.44 12.1 0 0 1452.46 416.01   Q 1454.60 417.63 1457.35 417.57   Q 1457.75 417.57 1457.99 417.70   Q 1458.55 418.03 1458.06 418.41   Q 1457.86 418.56 1457.51 418.57   Q 1448.13 418.92 1438.75 418.76   A 0.79 0.56 -3.7 0 1 1438.02 418.31   Q 1437.91 417.83 1438.75 417.75   Q 1442.91 417.37 1443.44 416.44   Z"/>
<path fill="#575656" d="   M 1499.64 408.26   Q 1500.07 409.34 1500.50 408.27   L 1512.69 378.19   Q 1513.97 375.02 1511.00 374.00   L 1508.52 373.15   A 0.71 0.55 17.0 0 1 1508.02 372.44   Q 1508.14 372.00 1509.00 372.00   Q 1515.00 372.00 1521.00 372.00   Q 1524.76 372.00 1521.25 373.50   Q 1518.26 374.78 1516.67 377.36   Q 1516.45 377.71 1514.39 382.68   Q 1506.81 400.92 1499.38 419.22   A 0.99 0.76 -78.7 0 1 1498.71 419.81   Q 1497.75 419.95 1497.32 418.94   Q 1488.53 398.10 1479.20 377.50   Q 1478.28 375.47 1477.04 374.59   Q 1475.51 373.51 1473.57 373.14   Q 1472.78 372.98 1472.85 372.52   A 0.74 0.53 2.4 0 1 1473.55 372.06   Q 1482.28 371.95 1491.00 372.00   Q 1491.77 372.00 1491.93 372.45   A 0.65 0.40 -19.7 0 1 1491.45 373.04   L 1488.00 374.31   Q 1486.17 374.99 1486.84 377.22   Q 1487.95 380.92 1489.32 383.94   Q 1494.85 396.19 1499.64 408.26   Z"/>
<path fill="#575656" d="   M 1551.82 415.77   Q 1553.34 416.42 1555.44 416.37   Q 1558.42 416.30 1558.57 416.31   Q 1561.72 416.38 1564.84 416.08   Q 1568.33 415.74 1570.58 414.03   Q 1573.79 411.60 1575.60 407.77   A 1.36 0.91 -78.9 0 1 1576.26 407.11   Q 1577.38 406.70 1576.75 408.50   Q 1574.15 415.94 1573.25 418.11   A 0.73 0.72 10.5 0 1 1572.57 418.57   L 1538.00 418.75   A 1.00 0.84 -14.5 0 1 1537.19 418.36   Q 1536.58 417.40 1538.25 417.42   Q 1544.10 417.51 1543.86 412.13   Q 1543.76 409.94 1543.76 409.86   Q 1543.91 393.73 1543.54 377.61   Q 1543.49 375.29 1542.36 374.30   Q 1540.87 372.99 1538.50 373.28   Q 1537.07 373.45 1537.36 372.52   A 0.74 0.64 7.8 0 1 1538.06 372.06   L 1572.56 372.18   A 0.57 0.56 86.6 0 1 1573.12 372.68   Q 1573.58 376.67 1573.73 380.68   Q 1573.76 381.36 1573.57 381.78   Q 1573.09 382.85 1572.33 381.66   Q 1572.09 381.28 1572.01 380.65   Q 1571.20 374.34 1564.50 374.40   Q 1557.78 374.45 1551.05 374.56   A 0.51 0.50 -90.0 0 0 1550.55 375.07   L 1550.56 392.44   A 0.48 0.47 -1.7 0 0 1551.07 392.91   Q 1558.31 392.49 1560.81 392.81   Q 1567.51 393.69 1568.03 387.32   A 1.61 0.91 81.0 0 1 1568.36 386.43   Q 1569.12 385.61 1569.25 387.25   Q 1569.60 391.66 1569.27 401.74   A 1.40 0.99 76.3 0 1 1568.92 402.63   Q 1568.14 403.36 1568.00 401.75   Q 1567.77 399.06 1566.41 397.41   Q 1565.27 396.01 1562.57 395.75   Q 1557.17 395.23 1551.10 395.55   A 0.63 0.63 -1.4 0 0 1550.50 396.18   L 1550.50 413.76   A 2.19 2.19 -78.3 0 0 1551.82 415.77   Z"/>
<path fill="#575656" d="   M 1630.81 413.94   Q 1632.81 416.46 1637.81 417.35   Q 1638.43 417.47 1638.77 417.67   Q 1639.67 418.24 1638.62 418.76   Q 1638.25 418.94 1637.73 418.92   Q 1632.40 418.67 1627.07 418.69   A 1.01 1.00 -18.0 0 1 1626.26 418.28   Q 1619.09 408.47 1611.94 398.64   Q 1610.84 397.13 1609.68 396.92   Q 1608.45 396.69 1606.61 396.94   A 0.96 0.96 87.2 0 0 1605.77 397.87   Q 1605.61 405.46 1605.91 412.17   Q 1606.02 414.64 1606.70 415.69   Q 1607.82 417.39 1610.25 417.50   Q 1610.88 417.52 1611.24 417.60   Q 1614.33 418.31 1611.24 418.91   Q 1610.78 419.00 1610.26 418.97   Q 1602.08 418.48 1593.90 418.98   Q 1593.48 419.00 1593.15 418.82   Q 1591.55 417.97 1593.75 417.83   Q 1599.42 417.48 1599.43 411.75   Q 1599.43 395.30 1599.05 378.85   Q 1598.98 375.97 1598.06 374.89   Q 1596.70 373.28 1593.75 373.25   Q 1592.18 373.23 1592.70 372.39   A 0.99 0.76 11.5 0 1 1593.50 372.00   Q 1603.50 372.00 1613.50 372.00   Q 1616.30 372.00 1619.99 373.03   Q 1626.74 374.93 1628.44 380.61   Q 1629.94 385.63 1627.16 390.07   Q 1624.34 394.59 1618.26 395.75   A 0.52 0.52 -22.7 0 0 1617.93 396.55   Q 1624.10 405.45 1630.81 413.94   Z   M 1617.56 376.69   Q 1612.55 373.27 1606.43 375.27   A 0.97 0.93 -9.7 0 0 1605.76 376.18   L 1605.92 394.06   A 0.59 0.57 3.4 0 0 1606.44 394.63   Q 1610.43 395.11 1614.26 393.78   Q 1620.82 391.49 1621.10 384.49   Q 1621.30 379.24 1617.56 376.69   Z"/>
<path fill="#575656" d="   M 1703.95 372.90   Q 1701.60 372.41 1703.99 372.25   Q 1712.83 371.64 1722.56 372.16   A 0.56 0.44 5.3 0 1 1723.10 372.68   Q 1722.97 373.42 1721.50 373.25   Q 1718.71 372.93 1717.34 374.90   Q 1716.50 376.11 1716.50 378.78   Q 1716.50 394.29 1716.50 409.80   Q 1716.50 409.91 1716.36 412.18   Q 1716.04 417.37 1721.75 417.47   Q 1724.46 417.52 1722.92 418.50   Q 1722.54 418.75 1722.00 418.74   Q 1713.03 418.63 1704.06 418.92   A 1.41 1.04 -19.1 0 1 1703.16 418.64   Q 1702.36 417.92 1703.94 417.69   Q 1706.53 417.31 1708.25 416.43   A 1.35 1.29 87.5 0 0 1708.87 415.72   Q 1709.74 413.30 1709.75 410.25   Q 1709.84 391.62 1709.55 378.71   Q 1709.49 375.73 1708.28 374.71   Q 1706.86 373.50 1703.95 372.90   Z"/>
<path fill="#575656" d="   M 1754.68 374.81   Q 1751.37 374.80 1748.06 375.06   Q 1744.65 375.32 1743.08 376.92   Q 1741.11 378.93 1740.75 382.25   Q 1740.60 383.60 1739.87 383.09   A 1.03 0.88 -74.0 0 1 1739.49 382.25   L 1739.81 372.64   A 0.69 0.66 0.9 0 1 1740.50 372.00   L 1777.34 372.00   A 0.93 0.90 88.7 0 1 1778.24 372.89   L 1778.65 381.95   A 1.51 0.95 72.8 0 1 1778.41 382.85   Q 1777.72 383.71 1777.23 382.45   Q 1777.10 382.12 1776.99 381.41   Q 1776.00 375.04 1769.26 374.76   Q 1766.48 374.64 1763.06 374.85   A 0.85 0.84 -1.8 0 0 1762.26 375.69   L 1762.49 414.50   A 1.55 1.41 -65.8 0 0 1762.79 415.41   Q 1764.54 417.72 1767.58 417.54   Q 1768.10 417.50 1768.41 417.58   Q 1769.60 417.88 1768.58 418.55   Q 1768.28 418.75 1767.85 418.74   Q 1759.20 418.63 1750.56 418.92   Q 1750.03 418.94 1749.61 418.74   Q 1747.43 417.70 1750.75 417.60   Q 1753.08 417.52 1754.34 416.07   Q 1755.24 415.03 1755.31 412.68   Q 1755.88 394.00 1755.20 375.32   A 0.52 0.52 89.4 0 0 1754.68 374.81   Z"/>
<path fill="#575656" d="   M 1796.85 373.30   Q 1792.85 373.19 1795.80 372.15   Q 1796.23 372.00 1796.72 372.00   Q 1805.49 372.00 1814.25 372.00   Q 1815.14 372.00 1814.75 372.57   A 1.02 0.77 12.4 0 1 1813.96 372.93   Q 1808.74 372.96 1808.01 377.13   Q 1808.00 377.16 1808.00 383.40   Q 1808.00 398.45 1808.00 413.50   Q 1808.00 416.95 1811.72 417.48   Q 1817.77 418.34 1812.55 418.89   Q 1812.09 418.94 1811.56 418.92   Q 1803.53 418.68 1795.50 418.75   A 0.84 0.58 -5.6 0 1 1794.74 418.33   Q 1794.62 417.95 1795.02 417.70   Q 1795.24 417.56 1795.63 417.59   Q 1798.89 417.80 1800.36 415.62   Q 1801.25 414.30 1801.25 411.18   Q 1801.25 394.89 1801.25 378.60   Q 1801.25 376.53 1800.66 375.53   Q 1799.79 374.05 1798.01 373.47   Q 1797.55 373.32 1796.85 373.30   Z"/>
<path fill="#575656" d="   M 1843.77 375.07   Q 1843.16 383.68 1843.66 392.31   A 0.58 0.58 0.6 0 0 1844.19 392.85   Q 1853.87 393.48 1857.25 392.75   Q 1860.77 391.99 1860.99 387.75   Q 1861.02 387.15 1861.19 386.78   Q 1861.76 385.54 1862.33 386.82   Q 1862.50 387.19 1862.50 387.71   Q 1862.50 394.35 1862.60 401.00   Q 1862.63 403.01 1861.40 402.29   A 0.99 0.79 -77.4 0 1 1861.01 401.50   Q 1860.96 398.40 1858.87 396.82   Q 1857.48 395.76 1854.38 395.61   Q 1849.65 395.37 1844.34 395.53   A 0.86 0.86 -0.7 0 0 1843.50 396.39   L 1843.50 413.23   Q 1843.50 415.84 1846.10 416.08   Q 1852.00 416.60 1858.76 416.10   Q 1863.28 415.76 1865.79 412.05   Q 1867.40 409.66 1869.24 407.46   Q 1870.06 406.48 1870.02 407.70   Q 1870.01 407.97 1869.90 408.29   Q 1868.22 413.17 1866.63 417.87   A 1.33 1.31 -80.3 0 1 1865.39 418.76   Q 1848.07 418.62 1831.62 418.93   Q 1831.01 418.94 1830.59 418.66   Q 1829.11 417.67 1832.06 417.60   Q 1834.14 417.55 1835.45 416.36   Q 1836.49 415.41 1836.59 413.29   Q 1837.06 403.37 1837.00 385.50   Q 1836.98 380.61 1836.73 377.68   Q 1836.51 375.22 1835.32 374.24   Q 1833.83 373.01 1831.25 373.25   Q 1829.28 373.43 1830.21 372.41   A 1.21 1.00 17.2 0 1 1831.06 372.06   L 1865.68 372.06   A 0.55 0.55 87.8 0 1 1866.23 372.57   Q 1866.58 376.65 1866.73 380.75   Q 1866.75 381.32 1866.59 381.73   Q 1866.08 382.96 1865.44 381.48   Q 1865.28 381.13 1865.18 380.51   Q 1864.67 377.62 1862.63 375.97   Q 1861.13 374.76 1858.02 374.63   Q 1851.17 374.33 1844.31 374.55   A 0.56 0.55 -88.3 0 0 1843.77 375.07   Z"/>
</svg>